<?xml version="1.0" encoding="utf-8"?>
<svg width="32px" height="32px" viewBox="0 0 32 32" version="1.1" xmlns:xlink="http://www.w3.org/1999/xlink" xmlns="http://www.w3.org/2000/svg">
  <defs>
    <path d="M0 0L32 0L32 32L0 32L0 0Z" id="path_1" />
    <clipPath id="mask_1">
      <use xlink:href="#path_1" />
    </clipPath>
  </defs>
  <g id="icons8-import-file">
    <path d="M0 0L32 0L32 32L0 32L0 0Z" id="Background" fill="none" fill-rule="evenodd" stroke="none" />
    <g clip-path="url(#mask_1)">
      <g id="surface10618444" transform="translate(6 3)">
        <path d="M0 0L0 26L15.5 26L13.4141 24L13.4141 24L2 24L2 2L12 2L12 8L18 8L18 16L20 16L20 6.58594L13.4141 0L0 0ZM14 3.41406L16.5859 6L14 6L14 3.41406ZM21 29L26 24L22 24L22 17L20 17L20 24L16 24L21 29Z" id="Shape" fill="#FFFFFF" fill-rule="evenodd" stroke="none" />
      </g>
    </g>
  </g>
</svg>