<?xml version="1.0" encoding="UTF-8"?>
<svg xmlns="http://www.w3.org/2000/svg" xmlns:xlink="http://www.w3.org/1999/xlink" viewBox="0 0 32 32" width="32px" height="32px">
<g id="surface105712038">
<path style=" stroke:none;fill-rule:nonzero;fill:rgb(100%,100%,100%);fill-opacity:1;" d="M 19 3 C 13.488281 3 9 7.488281 9 13 C 9 15.398438 9.851562 17.597656 11.265625 19.324219 L 3.292969 27.292969 L 4.707031 28.707031 L 12.675781 20.734375 C 14.402344 22.148438 16.601562 23 19 23 C 24.511719 23 29 18.511719 29 13 C 29 7.488281 24.511719 3 19 3 Z M 19 5 C 23.429688 5 27 8.570312 27 13 C 27 17.429688 23.429688 21 19 21 C 14.570312 21 11 17.429688 11 13 C 11 8.570312 14.570312 5 19 5 Z M 16.078125 9.296875 C 15.792969 9.542969 15.476562 9.765625 15.125 9.96875 C 14.769531 10.171875 14.398438 10.339844 14 10.472656 L 14 11.921875 C 14.136719 11.90625 14.273438 11.875 14.410156 11.832031 C 14.550781 11.792969 14.683594 11.742188 14.8125 11.683594 C 14.941406 11.621094 15.0625 11.554688 15.175781 11.480469 C 15.292969 11.40625 15.390625 11.324219 15.476562 11.242188 L 15.476562 16.699219 L 17 16.699219 L 17 9.296875 Z M 23.078125 9.296875 C 22.792969 9.542969 22.476562 9.765625 22.125 9.96875 C 21.769531 10.171875 21.398438 10.339844 21 10.472656 L 21 11.921875 C 21.136719 11.90625 21.273438 11.875 21.410156 11.832031 C 21.550781 11.792969 21.683594 11.742188 21.8125 11.683594 C 21.941406 11.621094 22.0625 11.554688 22.175781 11.480469 C 22.292969 11.40625 22.390625 11.324219 22.476562 11.242188 L 22.476562 16.699219 L 24 16.699219 L 24 9.296875 Z M 19.007812 11 C 18.722656 11 18.480469 11.09375 18.285156 11.28125 C 18.09375 11.464844 18 11.703125 18 11.996094 C 18 12.28125 18.09375 12.519531 18.28125 12.710938 C 18.464844 12.902344 18.699219 13 18.980469 13 C 19.28125 13 19.527344 12.90625 19.71875 12.71875 C 19.90625 12.535156 20 12.292969 20 11.996094 C 20 11.707031 19.910156 11.472656 19.722656 11.28125 C 19.535156 11.09375 19.300781 11 19.007812 11 Z M 19.007812 14 C 18.722656 14 18.480469 14.09375 18.285156 14.28125 C 18.09375 14.464844 18 14.703125 18 14.992188 C 18 15.273438 18.09375 15.515625 18.28125 15.707031 C 18.464844 15.902344 18.699219 16 18.980469 16 C 19.28125 16 19.527344 15.90625 19.71875 15.71875 C 19.90625 15.53125 20 15.289062 20 14.992188 C 20 14.707031 19.910156 14.46875 19.722656 14.28125 C 19.535156 14.09375 19.300781 14 19.007812 14 Z M 19.007812 14 "/>
</g>
</svg>
