<?xml version="1.0" encoding="UTF-8"?>
<svg xmlns="http://www.w3.org/2000/svg" xmlns:xlink="http://www.w3.org/1999/xlink" viewBox="0 0 32 32" width="32px" height="32px">
<g id="surface33636149">
<path style=" stroke:none;fill-rule:nonzero;fill:rgb(100%,100%,100%);fill-opacity:1;" d="M 7.667969 4 C 5.652344 4 4 5.652344 4 7.667969 L 4 24.332031 C 4 26.347656 5.652344 28 7.667969 28 L 24.332031 28 C 26.347656 28 28 26.347656 28 24.332031 L 28 7.667969 C 28 5.652344 26.347656 4 24.332031 4 Z M 7.667969 6 L 24.332031 6 C 25.265625 6 26 6.734375 26 7.667969 L 26 24.332031 C 26 25.265625 25.265625 26 24.332031 26 L 7.667969 26 C 6.734375 26 6 25.265625 6 24.332031 L 6 7.667969 C 6 6.734375 6.734375 6 7.667969 6 Z M 15.984375 9.320312 C 15.433594 9.328125 14.992188 9.78125 15 10.332031 L 15 15 L 10.332031 15 C 9.972656 14.996094 9.636719 15.183594 9.457031 15.496094 C 9.273438 15.808594 9.273438 16.191406 9.457031 16.503906 C 9.636719 16.816406 9.972656 17.003906 10.332031 17 L 15 17 L 15 21.667969 C 14.996094 22.027344 15.183594 22.363281 15.496094 22.542969 C 15.808594 22.726562 16.191406 22.726562 16.503906 22.542969 C 16.816406 22.363281 17.003906 22.027344 17 21.667969 L 17 17 L 21.667969 17 C 22.027344 17.003906 22.363281 16.816406 22.542969 16.503906 C 22.726562 16.191406 22.726562 15.808594 22.542969 15.496094 C 22.363281 15.183594 22.027344 14.996094 21.667969 15 L 17 15 L 17 10.332031 C 17.003906 10.0625 16.898438 9.800781 16.707031 9.613281 C 16.515625 9.421875 16.253906 9.316406 15.984375 9.320312 Z M 15.984375 9.320312 "/>
</g>
</svg>
