<?xml version="1.0" encoding="UTF-8"?>
<svg xmlns="http://www.w3.org/2000/svg" xmlns:xlink="http://www.w3.org/1999/xlink" viewBox="0 0 32 32" width="32px" height="32px">
<g id="surface2024027">
<path style=" stroke:none;fill-rule:nonzero;fill:rgb(100%,100%,100%);fill-opacity:1;" d="M 7.667969 4 C 5.652344 4 4 5.652344 4 7.667969 C 3.996094 8.027344 4.183594 8.363281 4.496094 8.542969 C 4.808594 8.726562 5.191406 8.726562 5.503906 8.542969 C 5.816406 8.363281 6.003906 8.027344 6 7.667969 C 6 6.734375 6.734375 6 7.667969 6 C 8.027344 6.003906 8.363281 5.816406 8.542969 5.503906 C 8.726562 5.191406 8.726562 4.808594 8.542969 4.496094 C 8.363281 4.183594 8.027344 3.996094 7.667969 4 Z M 11 4 C 10.449219 4 10 4.449219 10 5 C 10 5.550781 10.449219 6 11 6 C 11.550781 6 12 5.550781 12 5 C 12 4.449219 11.550781 4 11 4 Z M 15 4 C 14.449219 4 14 4.449219 14 5 C 14 5.550781 14.449219 6 15 6 C 15.550781 6 16 5.550781 16 5 C 16 4.449219 15.550781 4 15 4 Z M 19 4 C 18.449219 4 18 4.449219 18 5 C 18 5.550781 18.449219 6 19 6 C 19.550781 6 20 5.550781 20 5 C 20 4.449219 19.550781 4 19 4 Z M 22.332031 4 C 21.972656 3.996094 21.636719 4.183594 21.457031 4.496094 C 21.273438 4.808594 21.273438 5.191406 21.457031 5.503906 C 21.636719 5.816406 21.972656 6.003906 22.332031 6 C 23.265625 6 24 6.734375 24 7.667969 C 23.996094 8.027344 24.183594 8.363281 24.496094 8.542969 C 24.808594 8.726562 25.191406 8.726562 25.503906 8.542969 C 25.816406 8.363281 26.003906 8.027344 26 7.667969 C 26 5.652344 24.347656 4 22.332031 4 Z M 5 10 C 4.449219 10 4 10.449219 4 11 C 4 11.550781 4.449219 12 5 12 C 5.550781 12 6 11.550781 6 11 C 6 10.449219 5.550781 10 5 10 Z M 25 10 C 24.449219 10 24 10.449219 24 11 C 24 11.550781 24.449219 12 25 12 C 25.550781 12 26 11.550781 26 11 C 26 10.449219 25.550781 10 25 10 Z M 5 14 C 4.449219 14 4 14.449219 4 15 C 4 15.550781 4.449219 16 5 16 C 5.550781 16 6 15.550781 6 15 C 6 14.449219 5.550781 14 5 14 Z M 25 14 C 24.449219 14 24 14.449219 24 15 C 24 15.550781 24.449219 16 25 16 C 25.550781 16 26 15.550781 26 15 C 26 14.449219 25.550781 14 25 14 Z M 5 18 C 4.449219 18 4 18.449219 4 19 C 4 19.550781 4.449219 20 5 20 C 5.550781 20 6 19.550781 6 19 C 6 18.449219 5.550781 18 5 18 Z M 25 18 C 24.449219 18 24 18.449219 24 19 C 24 19.550781 24.449219 20 25 20 C 25.550781 20 26 19.550781 26 19 C 26 18.449219 25.550781 18 25 18 Z M 4.984375 21.320312 C 4.433594 21.328125 3.992188 21.78125 4 22.332031 C 4 24.347656 5.652344 26 7.667969 26 C 8.027344 26.003906 8.363281 25.816406 8.542969 25.503906 C 8.726562 25.191406 8.726562 24.808594 8.542969 24.496094 C 8.363281 24.183594 8.027344 23.996094 7.667969 24 C 6.734375 24 6 23.265625 6 22.332031 C 6.003906 22.0625 5.898438 21.800781 5.707031 21.613281 C 5.515625 21.421875 5.253906 21.316406 4.984375 21.320312 Z M 24.984375 21.320312 C 24.433594 21.328125 23.992188 21.78125 24 22.332031 L 24 24 L 22.332031 24 C 21.972656 23.996094 21.636719 24.183594 21.457031 24.496094 C 21.273438 24.808594 21.273438 25.191406 21.457031 25.503906 C 21.636719 25.816406 21.972656 26.003906 22.332031 26 L 24 26 L 24 27.667969 C 23.996094 28.027344 24.183594 28.363281 24.496094 28.542969 C 24.808594 28.726562 25.191406 28.726562 25.503906 28.542969 C 25.816406 28.363281 26.003906 28.027344 26 27.667969 L 26 26 L 27.667969 26 C 28.027344 26.003906 28.363281 25.816406 28.542969 25.503906 C 28.726562 25.191406 28.726562 24.808594 28.542969 24.496094 C 28.363281 24.183594 28.027344 23.996094 27.667969 24 L 26 24 L 26 22.332031 C 26.003906 22.0625 25.898438 21.800781 25.707031 21.613281 C 25.515625 21.421875 25.253906 21.316406 24.984375 21.320312 Z M 11 24 C 10.449219 24 10 24.449219 10 25 C 10 25.550781 10.449219 26 11 26 C 11.550781 26 12 25.550781 12 25 C 12 24.449219 11.550781 24 11 24 Z M 15 24 C 14.449219 24 14 24.449219 14 25 C 14 25.550781 14.449219 26 15 26 C 15.550781 26 16 25.550781 16 25 C 16 24.449219 15.550781 24 15 24 Z M 19 24 C 18.449219 24 18 24.449219 18 25 C 18 25.550781 18.449219 26 19 26 C 19.550781 26 20 25.550781 20 25 C 20 24.449219 19.550781 24 19 24 Z M 19 24 "/>
</g>
</svg>
