<?xml version="1.0" encoding="UTF-8"?>
<svg xmlns="http://www.w3.org/2000/svg" xmlns:xlink="http://www.w3.org/1999/xlink" viewBox="0 0 32 32" width="32px" height="32px">
<g id="surface13129779">
<path style=" stroke:none;fill-rule:nonzero;fill:rgb(100%,100%,100%);fill-opacity:1;" d="M 4 4 L 4 6 L 6 6 L 6 4 Z M 8 4 L 8 6 L 10 6 L 10 4 Z M 12 4 L 12 6 L 14 6 L 14 4 Z M 16 4 L 16 6 L 18 6 L 18 4 Z M 20 4 L 20 6 L 22 6 L 22 4 Z M 24 4 L 24 6 L 26 6 L 26 4 Z M 4 8 L 4 10 L 6 10 L 6 8 Z M 24 8 L 24 10 L 26 10 L 26 8 Z M 4 12 L 4 14 L 6 14 L 6 12 Z M 24 12 L 24 14 L 26 14 L 26 12 Z M 14.5 13 L 14.1875 13.40625 L 13 15 L 8 15 L 8 28 L 28 28 L 28 15 L 23 15 L 21.8125 13.40625 L 21.5 13 Z M 15.5 15 L 20.5 15 L 21.6875 16.59375 L 22 17 L 26 17 L 26 26 L 10 26 L 10 17 L 14 17 L 14.3125 16.59375 Z M 4 16 L 4 18 L 6 18 L 6 16 Z M 18 17 C 15.800781 17 14 18.800781 14 21 C 14 23.199219 15.800781 25 18 25 C 20.199219 25 22 23.199219 22 21 C 22 18.800781 20.199219 17 18 17 Z M 18 19 C 19.117188 19 20 19.882812 20 21 C 20 22.117188 19.117188 23 18 23 C 16.882812 23 16 22.117188 16 21 C 16 19.882812 16.882812 19 18 19 Z M 4 20 L 4 22 L 6 22 L 6 20 Z M 4 20 "/>
</g>
</svg>
