<?xml version="1.0" encoding="UTF-8"?>
<svg xmlns="http://www.w3.org/2000/svg" xmlns:xlink="http://www.w3.org/1999/xlink" viewBox="0 0 32 32" width="32px" height="32px">
<g id="surface17557814">
<path style=" stroke:none;fill-rule:nonzero;fill:rgb(100%,100%,100%);fill-opacity:1;" d="M 6 3 L 6 29 L 21.171875 29 L 19.171875 27 L 8 27 L 8 5 L 18 5 L 18 11 L 24 11 L 24 18 L 26 18 L 26 9.585938 L 19.414062 3 Z M 20 6.414062 L 22.585938 9 L 20 9 Z M 20.285156 13.464844 L 16 18.464844 L 12.570312 14.464844 L 9.242188 18.347656 L 10.757812 19.652344 L 12.574219 17.535156 L 16 21.535156 L 20.285156 16.535156 L 21.238281 17.652344 L 22.757812 16.347656 Z M 26 20 L 26 27 L 22 27 L 27 32 L 32 27 L 28 27 L 28 20 Z M 26 20 "/>
</g>
</svg>
