<?xml version="1.0" encoding="UTF-8"?>
<svg xmlns="http://www.w3.org/2000/svg" xmlns:xlink="http://www.w3.org/1999/xlink" viewBox="0 0 32 32" width="32px" height="32px">
<g id="surface2220916">
<path style="fill-rule:nonzero;fill:rgb(0%,0%,0%);fill-opacity:1;stroke-width:18;stroke-linecap:butt;stroke-linejoin:round;stroke:rgb(100%,100%,100%);stroke-opacity:1;stroke-miterlimit:10;" d="M 160.866739 35.470175 C 161.748343 37.511785 161.261141 39.878195 159.683534 41.432602 L 62.915899 138.177037 C 60.827889 140.265047 57.417474 140.265047 55.329465 138.177037 L 12.316471 95.164044 C 10.924465 93.818438 10.344462 91.823229 10.854865 89.94402 C 11.342067 88.064812 12.803673 86.580005 14.682882 86.092803 C 16.58529 85.605601 18.580499 86.162403 19.926106 87.57761 L 59.134282 126.785786 L 152.0739 33.822968 C 153.048304 32.825364 154.37071 32.245361 155.762716 32.198961 C 157.989926 32.12936 160.008335 33.428566 160.866739 35.470175 Z M 160.866739 35.470175 " transform="matrix(0.168372,0,0,0.168372,1.52,1.52)"/>
<path style=" stroke:none;fill-rule:nonzero;fill:rgb(100%,100%,100%);fill-opacity:1;" d="M 27.746094 6.941406 C 27.511719 6.949219 27.289062 7.046875 27.125 7.214844 L 11.476562 22.867188 L 4.875 16.265625 C 4.648438 16.027344 4.3125 15.933594 3.992188 16.015625 C 3.675781 16.097656 3.429688 16.347656 3.347656 16.664062 C 3.261719 16.980469 3.359375 17.316406 3.59375 17.542969 L 10.835938 24.785156 C 11.1875 25.136719 11.761719 25.136719 12.113281 24.785156 L 28.40625 8.496094 C 28.671875 8.234375 28.753906 7.835938 28.605469 7.492188 C 28.460938 7.148438 28.121094 6.929688 27.746094 6.941406 Z M 27.746094 6.941406 "/>
</g>
</svg>
