<?xml version="1.0" encoding="UTF-8"?>
<svg xmlns="http://www.w3.org/2000/svg" xmlns:xlink="http://www.w3.org/1999/xlink" viewBox="0 0 32 32" width="32px" height="32px">
<g id="surface26333241">
<path style=" stroke:none;fill-rule:nonzero;fill:rgb(10.196079%,73.725492%,61.176473%);fill-opacity:1;" d="M 16 4 C 9.382812 4 4 9.382812 4 16 C 4 22.617188 9.382812 28 16 28 C 22.617188 28 28 22.617188 28 16 C 28 9.382812 22.617188 4 16 4 Z M 16 6 C 21.535156 6 26 10.464844 26 16 C 26 21.535156 21.535156 26 16 26 C 10.464844 26 6 21.535156 6 16 C 6 10.464844 10.464844 6 16 6 Z M 20.949219 12 L 14.699219 18.25 L 11.449219 15 L 10.050781 16.402344 L 14.699219 21.050781 L 22.347656 13.402344 Z M 20.949219 12 "/>
</g>
</svg>
