<?xml version="1.0" encoding="UTF-8"?>
<svg xmlns="http://www.w3.org/2000/svg" xmlns:xlink="http://www.w3.org/1999/xlink" viewBox="0 0 32 32" width="32px" height="32px">
<g id="surface2152761">
<path style="fill-rule:nonzero;fill:rgb(0%,0%,0%);fill-opacity:1;stroke-width:18;stroke-linecap:butt;stroke-linejoin:round;stroke:rgb(100%,100%,100%);stroke-opacity:1;stroke-miterlimit:10;" d="M 160.913139 46.235024 C 161.771543 48.276633 161.284341 50.643044 159.683534 52.174251 L 89.80482 122.052965 C 87.69361 124.140974 84.306395 124.140974 82.195186 122.052965 L 12.316471 52.174251 C 10.762064 50.643044 10.274862 48.323033 11.086866 46.304624 C 11.92207 44.263015 13.870878 42.940609 16.074888 42.940609 C 17.513295 42.940609 18.905301 43.543812 19.926106 44.564616 L 86.000003 110.638513 L 152.0739 44.564616 C 153.048304 43.543812 154.41711 42.963809 155.832317 42.917409 C 158.036327 42.871009 160.054736 44.193415 160.913139 46.235024 Z M 160.913139 46.235024 " transform="matrix(0.168372,0,0,0.168372,1.52,1.52)"/>
<path style=" stroke:none;fill-rule:nonzero;fill:rgb(100%,100%,100%);fill-opacity:1;" d="M 27.757812 8.746094 C 27.519531 8.753906 27.289062 8.851562 27.125 9.023438 L 16 20.148438 L 4.875 9.023438 C 4.703125 8.851562 4.46875 8.75 4.226562 8.75 C 3.855469 8.75 3.527344 8.972656 3.386719 9.316406 C 3.25 9.65625 3.332031 10.046875 3.59375 10.304688 L 15.359375 22.070312 C 15.714844 22.421875 16.285156 22.421875 16.640625 22.070312 L 28.40625 10.304688 C 28.675781 10.046875 28.757812 9.648438 28.613281 9.304688 C 28.46875 8.960938 28.128906 8.738281 27.757812 8.746094 Z M 27.757812 8.746094 "/>
</g>
</svg>
