<?xml version="1.0" encoding="UTF-8"?>
<svg xmlns="http://www.w3.org/2000/svg" xmlns:xlink="http://www.w3.org/1999/xlink" viewBox="0 0 32 32" width="32px" height="32px">
<g id="surface2073431">
<path style=" stroke:none;fill-rule:nonzero;fill:rgb(100%,100%,100%);fill-opacity:1;" d="M 26.324219 4.652344 C 26.058594 4.660156 25.808594 4.769531 25.625 4.960938 L 16 14.585938 L 6.375 4.960938 C 6.183594 4.765625 5.925781 4.65625 5.65625 4.65625 C 5.25 4.65625 4.882812 4.902344 4.730469 5.28125 C 4.578125 5.65625 4.667969 6.089844 4.960938 6.375 L 14.585938 16 L 4.960938 25.625 C 4.699219 25.878906 4.59375 26.25 4.683594 26.601562 C 4.777344 26.949219 5.050781 27.222656 5.398438 27.316406 C 5.75 27.40625 6.121094 27.300781 6.375 27.039062 L 16 17.414062 L 25.625 27.039062 C 25.878906 27.300781 26.25 27.40625 26.601562 27.316406 C 26.949219 27.222656 27.222656 26.949219 27.316406 26.601562 C 27.40625 26.25 27.300781 25.878906 27.039062 25.625 L 17.414062 16 L 27.039062 6.375 C 27.339844 6.089844 27.429688 5.648438 27.269531 5.269531 C 27.113281 4.886719 26.738281 4.644531 26.324219 4.652344 Z M 26.324219 4.652344 "/>
</g>
</svg>
