<?xml version="1.0" encoding="UTF-8"?>
<svg xmlns="http://www.w3.org/2000/svg" xmlns:xlink="http://www.w3.org/1999/xlink" viewBox="0 0 32 32" width="32px" height="32px">
<g id="surface3842734">
<path style=" stroke:none;fill-rule:nonzero;fill:rgb(100%,100%,100%);fill-opacity:1;" d="M 7.667969 4 C 5.652344 4 4 5.652344 4 7.667969 L 4 24.332031 C 4 26.347656 5.652344 28 7.667969 28 L 24.332031 28 C 26.347656 28 28 26.347656 28 24.332031 L 28 7.667969 C 28 5.652344 26.347656 4 24.332031 4 Z M 7.667969 6 L 24.332031 6 C 25.265625 6 26 6.734375 26 7.667969 L 26 24.332031 C 26 25.265625 25.265625 26 24.332031 26 L 7.667969 26 C 6.734375 26 6 25.265625 6 24.332031 L 6 7.667969 C 6 6.734375 6.734375 6 7.667969 6 Z M 20.324219 10.652344 C 20.058594 10.660156 19.808594 10.769531 19.625 10.960938 L 16 14.585938 L 12.375 10.960938 C 12.183594 10.765625 11.925781 10.65625 11.65625 10.65625 C 11.25 10.65625 10.882812 10.902344 10.730469 11.28125 C 10.578125 11.65625 10.667969 12.089844 10.960938 12.375 L 14.585938 16 L 10.960938 19.625 C 10.699219 19.878906 10.59375 20.25 10.683594 20.601562 C 10.777344 20.949219 11.050781 21.222656 11.398438 21.316406 C 11.75 21.40625 12.121094 21.300781 12.375 21.039062 L 16 17.414062 L 19.625 21.039062 C 19.878906 21.300781 20.25 21.40625 20.601562 21.316406 C 20.949219 21.222656 21.222656 20.949219 21.316406 20.601562 C 21.40625 20.25 21.300781 19.878906 21.039062 19.625 L 17.414062 16 L 21.039062 12.375 C 21.339844 12.089844 21.429688 11.648438 21.269531 11.269531 C 21.113281 10.886719 20.738281 10.644531 20.324219 10.652344 Z M 20.324219 10.652344 "/>
</g>
</svg>
