<?xml version="1.0" encoding="UTF-8"?>
<svg xmlns="http://www.w3.org/2000/svg" xmlns:xlink="http://www.w3.org/1999/xlink" viewBox="0 0 32 32" width="32px" height="32px">
<g id="surface43063863">
<path style=" stroke:none;fill-rule:nonzero;fill:rgb(100%,100%,100%);fill-opacity:1;" d="M 12.332031 3.332031 C 10.320312 3.332031 8.667969 4.988281 8.667969 7 L 8.667969 21.667969 C 8.667969 23.679688 10.320312 25.332031 12.332031 25.332031 L 23 25.332031 C 25.011719 25.332031 26.667969 23.679688 26.667969 21.667969 L 26.667969 7 C 26.667969 4.988281 25.011719 3.332031 23 3.332031 Z M 12.332031 5.332031 L 23 5.332031 C 23.933594 5.332031 24.667969 6.066406 24.667969 7 L 24.667969 21.667969 C 24.667969 22.597656 23.933594 23.332031 23 23.332031 L 12.332031 23.332031 C 11.402344 23.332031 10.667969 22.597656 10.667969 21.667969 L 10.667969 7 C 10.667969 6.066406 11.402344 5.332031 12.332031 5.332031 Z M 7.332031 6.667969 L 6.519531 7.207031 C 5.777344 7.703125 5.332031 8.535156 5.332031 9.425781 L 5.332031 22.332031 C 5.332031 25.832031 8.167969 28.667969 11.667969 28.667969 L 20.574219 28.667969 C 21.464844 28.667969 22.296875 28.222656 22.792969 27.480469 L 23.332031 26.667969 L 11.667969 26.667969 C 9.273438 26.667969 7.332031 24.726562 7.332031 22.332031 Z M 7.332031 6.667969 "/>
</g>
</svg>
