<?xml version="1.0" encoding="UTF-8"?>
<svg xmlns="http://www.w3.org/2000/svg" xmlns:xlink="http://www.w3.org/1999/xlink" viewBox="0 0 32 32" width="32px" height="32px">
<g id="surface2044856">
<path style=" stroke:none;fill-rule:nonzero;fill:rgb(100%,100%,100%);fill-opacity:1;" d="M 7.667969 4 C 5.652344 4 4 5.652344 4 7.667969 L 4 24.332031 C 4 26.347656 5.652344 28 7.667969 28 L 24.332031 28 C 26.347656 28 28 26.347656 28 24.332031 L 28 7.667969 C 28 5.652344 26.347656 4 24.332031 4 Z M 7.667969 6 L 24.332031 6 C 25.265625 6 26 6.734375 26 7.667969 L 26 24.332031 C 26 25.265625 25.265625 26 24.332031 26 L 7.667969 26 C 6.734375 26 6 25.265625 6 24.332031 L 6 7.667969 C 6 6.734375 6.734375 6 7.667969 6 Z M 22.980469 7.992188 C 22.945312 7.992188 22.910156 7.996094 22.871094 8 L 18.332031 8 C 17.972656 7.996094 17.636719 8.183594 17.457031 8.496094 C 17.273438 8.808594 17.273438 9.191406 17.457031 9.503906 C 17.636719 9.816406 17.972656 10.003906 18.332031 10 L 20.585938 10 L 10 20.585938 L 10 18.332031 C 10.003906 17.972656 9.816406 17.636719 9.503906 17.457031 C 9.191406 17.273438 8.808594 17.273438 8.496094 17.457031 C 8.183594 17.636719 7.996094 17.972656 8 18.332031 L 8 22.875 C 7.957031 23.183594 8.0625 23.496094 8.285156 23.71875 C 8.503906 23.9375 8.816406 24.042969 9.128906 24 L 13.667969 24 C 14.027344 24.003906 14.363281 23.816406 14.542969 23.503906 C 14.726562 23.191406 14.726562 22.808594 14.542969 22.496094 C 14.363281 22.183594 14.027344 21.996094 13.667969 22 L 11.414062 22 L 22 11.414062 L 22 13.667969 C 21.996094 14.027344 22.183594 14.363281 22.496094 14.542969 C 22.808594 14.726562 23.191406 14.726562 23.503906 14.542969 C 23.816406 14.363281 24.003906 14.027344 24 13.667969 L 24 9.125 C 24.039062 8.835938 23.949219 8.542969 23.753906 8.324219 C 23.558594 8.105469 23.273438 7.984375 22.980469 7.992188 Z M 22.980469 7.992188 "/>
</g>
</svg>
