<?xml version="1.0" encoding="UTF-8"?>
<svg xmlns="http://www.w3.org/2000/svg" xmlns:xlink="http://www.w3.org/1999/xlink" viewBox="0 0 32 32" width="32px" height="32px">
<g id="surface20144084">
<path style=" stroke:none;fill-rule:nonzero;fill:rgb(100%,100%,100%);fill-opacity:1;" d="M 16 2 C 14.742188 2 13.859375 2.894531 13.417969 4 L 5 4 L 5 29 L 27 29 L 27 4 L 18.582031 4 C 18.140625 2.894531 17.257812 2 16 2 Z M 16 4 C 16.566406 4 17 4.433594 17 5 L 17 6 L 20 6 L 20 8 L 12 8 L 12 6 L 15 6 L 15 5 C 15 4.433594 15.433594 4 16 4 Z M 7 6 L 10 6 L 10 10 L 22 10 L 22 6 L 25 6 L 25 27 L 7 27 Z M 10 14 L 10 16 L 18 16 L 18 14 Z M 20 14 L 20 16 L 22 16 L 22 14 Z M 10 18 L 10 20 L 18 20 L 18 18 Z M 20 18 L 20 20 L 22 20 L 22 18 Z M 10 22 L 10 24 L 18 24 L 18 22 Z M 20 22 L 20 24 L 22 24 L 22 22 Z M 20 22 "/>
</g>
</svg>
