<?xml version="1.0" encoding="UTF-8"?>
<svg xmlns="http://www.w3.org/2000/svg" xmlns:xlink="http://www.w3.org/1999/xlink" viewBox="0 0 32 32" width="32px" height="32px">
<g id="surface4162639">
<path style=" stroke:none;fill-rule:nonzero;fill:rgb(100%,100%,100%);fill-opacity:1;" d="M 13.667969 2.667969 C 12.136719 2.667969 10.871094 3.84375 10.699219 5.332031 L 8.332031 5.332031 C 6.6875 5.332031 5.332031 6.6875 5.332031 8.332031 L 5.332031 26.332031 C 5.332031 27.976562 6.6875 29.332031 8.332031 29.332031 L 23.667969 29.332031 C 25.3125 29.332031 26.667969 27.976562 26.667969 26.332031 L 26.667969 8.332031 C 26.667969 6.6875 25.3125 5.332031 23.667969 5.332031 L 21.300781 5.332031 C 21.128906 3.84375 19.863281 2.667969 18.332031 2.667969 Z M 13.667969 4.667969 L 18.332031 4.667969 C 18.898438 4.667969 19.332031 5.101562 19.332031 5.667969 C 19.332031 6.230469 18.898438 6.667969 18.332031 6.667969 L 13.667969 6.667969 C 13.101562 6.667969 12.667969 6.230469 12.667969 5.667969 C 12.667969 5.101562 13.101562 4.667969 13.667969 4.667969 Z M 8.332031 7.332031 L 11.179688 7.332031 C 11.722656 8.132812 12.636719 8.667969 13.667969 8.667969 L 18.332031 8.667969 C 19.363281 8.667969 20.277344 8.132812 20.820312 7.332031 L 23.667969 7.332031 C 24.230469 7.332031 24.667969 7.769531 24.667969 8.332031 L 24.667969 26.332031 C 24.667969 26.898438 24.230469 27.332031 23.667969 27.332031 L 8.332031 27.332031 C 7.769531 27.332031 7.332031 26.898438 7.332031 26.332031 L 7.332031 8.332031 C 7.332031 7.769531 7.769531 7.332031 8.332031 7.332031 Z M 10.332031 13.332031 C 9.972656 13.328125 9.636719 13.519531 9.457031 13.828125 C 9.273438 14.140625 9.273438 14.527344 9.457031 14.835938 C 9.636719 15.148438 9.972656 15.339844 10.332031 15.332031 L 17 15.332031 C 17.359375 15.339844 17.695312 15.148438 17.878906 14.835938 C 18.058594 14.527344 18.058594 14.140625 17.878906 13.828125 C 17.695312 13.519531 17.359375 13.328125 17 13.332031 Z M 20.332031 13.332031 C 19.972656 13.328125 19.636719 13.519531 19.457031 13.828125 C 19.273438 14.140625 19.273438 14.527344 19.457031 14.835938 C 19.636719 15.148438 19.972656 15.339844 20.332031 15.332031 L 21.667969 15.332031 C 22.027344 15.339844 22.363281 15.148438 22.542969 14.835938 C 22.726562 14.527344 22.726562 14.140625 22.542969 13.828125 C 22.363281 13.519531 22.027344 13.328125 21.667969 13.332031 Z M 10.332031 17.332031 C 9.972656 17.328125 9.636719 17.519531 9.457031 17.828125 C 9.273438 18.140625 9.273438 18.527344 9.457031 18.835938 C 9.636719 19.148438 9.972656 19.339844 10.332031 19.332031 L 17 19.332031 C 17.359375 19.339844 17.695312 19.148438 17.878906 18.835938 C 18.058594 18.527344 18.058594 18.140625 17.878906 17.828125 C 17.695312 17.519531 17.359375 17.328125 17 17.332031 Z M 20.332031 17.332031 C 19.972656 17.328125 19.636719 17.519531 19.457031 17.828125 C 19.273438 18.140625 19.273438 18.527344 19.457031 18.835938 C 19.636719 19.148438 19.972656 19.339844 20.332031 19.332031 L 21.667969 19.332031 C 22.027344 19.339844 22.363281 19.148438 22.542969 18.835938 C 22.726562 18.527344 22.726562 18.140625 22.542969 17.828125 C 22.363281 17.519531 22.027344 17.328125 21.667969 17.332031 Z M 10.332031 21.332031 C 9.972656 21.328125 9.636719 21.519531 9.457031 21.828125 C 9.273438 22.140625 9.273438 22.527344 9.457031 22.835938 C 9.636719 23.148438 9.972656 23.339844 10.332031 23.332031 L 17 23.332031 C 17.359375 23.339844 17.695312 23.148438 17.878906 22.835938 C 18.058594 22.527344 18.058594 22.140625 17.878906 21.828125 C 17.695312 21.519531 17.359375 21.328125 17 21.332031 Z M 20.332031 21.332031 C 19.972656 21.328125 19.636719 21.519531 19.457031 21.828125 C 19.273438 22.140625 19.273438 22.527344 19.457031 22.835938 C 19.636719 23.148438 19.972656 23.339844 20.332031 23.332031 L 21.667969 23.332031 C 22.027344 23.339844 22.363281 23.148438 22.542969 22.835938 C 22.726562 22.527344 22.726562 22.140625 22.542969 21.828125 C 22.363281 21.519531 22.027344 21.328125 21.667969 21.332031 Z M 20.332031 21.332031 "/>
</g>
</svg>
