<svg width="48" height="48" viewBox="0 0 48 48" fill="none" xmlns="http://www.w3.org/2000/svg">
<path d="M38.5 14H29V4.5L38.5 14Z" fill="#E1F5FE"/>
<path d="M40 45H8V3H30L40 13V45Z" fill="#E1F5FE"/>
<path d="M38.5 14H29V4.5L38.5 14Z" fill="#8FB9CB"/>
<path d="M13 8H19V10H13V8ZM21 8H27V10H21V8ZM13 12H19V14H13V12ZM21 12H27V14H21V12ZM13 34H19V36H13V34ZM21 34H27V36H21V34ZM13 38H19V40H13V38ZM21 38H27V40H21V38ZM29 34H35V36H29V34ZM29 38H35V40H29V38Z" fill="#8FB9CB"/>
<path d="M8 16H40V32H8V16Z" fill="#6B90A0"/>
<path d="M48 38H32L40 48L48 38Z" fill="#455A64"/>
<path d="M37 29H43V43H37V29Z" fill="#455A64"/>
<path d="M18.631 19.835V21.863H16.187V29H13.639V21.863H11.221V19.835H18.631ZM25.3067 29L23.5257 26.413L22.0047 29H19.1057L22.0827 24.307L19.0017 19.835H22.0047L23.7337 22.357L25.2157 19.835H28.1147L25.1767 24.45L28.3097 29H25.3067ZM36.0871 19.835V21.863H33.6431V29H31.0951V21.863H28.6771V19.835H36.0871Z" fill="white"/>
</svg>
