<?xml version="1.0" encoding="UTF-8"?>
<svg xmlns="http://www.w3.org/2000/svg" xmlns:xlink="http://www.w3.org/1999/xlink" viewBox="0 0 48 48" width="48px" height="48px">
<g id="surface35479548">
<path style=" stroke:none;fill-rule:nonzero;fill:rgb(100%,100%,100%);fill-opacity:1;" d="M 8.5 6 C 6.03125 6 4 8.03125 4 10.5 L 4 30.5 C 4 32.96875 6.03125 35 8.5 35 L 22.5 35 L 22.5 40 L 10.5 40 C 9.960938 39.992188 9.457031 40.277344 9.183594 40.742188 C 8.910156 41.210938 8.910156 41.789062 9.183594 42.257812 C 9.457031 42.722656 9.960938 43.007812 10.5 43 L 37.5 43 C 38.039062 43.007812 38.542969 42.722656 38.816406 42.257812 C 39.089844 41.789062 39.089844 41.210938 38.816406 40.742188 C 38.542969 40.277344 38.039062 39.992188 37.5 40 L 25.5 40 L 25.5 35 L 39.5 35 C 41.96875 35 44 32.96875 44 30.5 L 44 10.5 C 44 8.03125 41.96875 6 39.5 6 Z M 8.5 9 L 39.5 9 C 40.347656 9 41 9.652344 41 10.5 L 41 30.5 C 41 31.347656 40.347656 32 39.5 32 L 8.5 32 C 7.652344 32 7 31.347656 7 30.5 L 7 10.5 C 7 9.652344 7.652344 9 8.5 9 Z M 32.484375 14.984375 C 31.875 14.984375 31.324219 15.355469 31.09375 15.921875 C 30.863281 16.488281 31 17.136719 31.4375 17.558594 L 32.878906 19 L 27.5 19 C 26.960938 18.992188 26.457031 19.277344 26.183594 19.742188 C 25.910156 20.210938 25.910156 20.789062 26.183594 21.257812 C 26.457031 21.722656 26.960938 22.007812 27.5 22 L 32.878906 22 L 31.4375 23.441406 C 31.046875 23.816406 30.890625 24.375 31.027344 24.898438 C 31.164062 25.425781 31.574219 25.835938 32.101562 25.972656 C 32.625 26.109375 33.183594 25.953125 33.558594 25.5625 L 37.429688 21.691406 C 37.804688 21.40625 38.019531 20.960938 38.019531 20.496094 C 38.015625 20.027344 37.796875 19.585938 37.421875 19.304688 L 33.5625 15.441406 C 33.277344 15.148438 32.890625 14.984375 32.484375 14.984375 Z M 15.472656 14.988281 C 15.082031 14.996094 14.710938 15.160156 14.441406 15.441406 L 10.570312 19.3125 C 10.195312 19.59375 9.980469 20.039062 9.980469 20.503906 C 9.984375 20.972656 10.203125 21.414062 10.578125 21.699219 L 14.4375 25.5625 C 14.816406 25.953125 15.375 26.109375 15.898438 25.972656 C 16.425781 25.835938 16.835938 25.425781 16.972656 24.898438 C 17.109375 24.375 16.953125 23.816406 16.5625 23.4375 L 15.121094 22 L 20.5 22 C 21.039062 22.007812 21.542969 21.722656 21.816406 21.257812 C 22.089844 20.789062 22.089844 20.210938 21.816406 19.742188 C 21.542969 19.277344 21.039062 18.992188 20.5 19 L 15.121094 19 L 16.5625 17.558594 C 17.003906 17.128906 17.136719 16.46875 16.894531 15.902344 C 16.65625 15.332031 16.089844 14.96875 15.472656 14.984375 Z M 15.472656 14.988281 "/>
</g>
</svg>
