<?xml version="1.0" encoding="UTF-8"?>
<svg xmlns="http://www.w3.org/2000/svg" xmlns:xlink="http://www.w3.org/1999/xlink" viewBox="0 0 64 64" width="64px" height="64px">
<g id="surface48413090">
<path style=" stroke:none;fill-rule:nonzero;fill:rgb(100%,100%,100%);fill-opacity:1;" d="M 11 6 L 11 58 L 53 58 L 53 24.152344 C 53 22.117188 52.28125 20.144531 50.96875 18.585938 L 42.109375 8.042969 C 41.019531 6.746094 39.417969 6 37.722656 6 Z M 15 10 L 36.695312 10 C 39.984375 10 41 11.363281 41 12.582031 C 41 14.363281 39 17 39 17 C 47.726562 21.128906 48.835938 21.4375 48.972656 24 L 15 24 Z M 27.933594 27.929688 L 30.109375 27.929688 L 32.0625 31.382812 L 34.070312 27.929688 L 36.066406 27.929688 L 33.109375 32.980469 L 36.066406 38.089844 L 33.886719 38.089844 L 31.933594 34.566406 L 29.96875 38.089844 L 27.933594 38.089844 L 30.929688 32.96875 Z M 19.644531 27.933594 L 26.742188 27.933594 L 26.742188 29.730469 L 24.183594 29.730469 L 24.183594 38.089844 L 22.230469 38.089844 L 22.230469 29.730469 L 19.644531 29.730469 Z M 37.253906 27.933594 L 44.355469 27.933594 L 44.355469 29.730469 L 41.796875 29.730469 L 41.796875 38.089844 L 39.84375 38.089844 L 39.84375 29.730469 L 37.253906 29.730469 Z M 15 42 L 49 42 L 49 54 L 15 54 Z M 15 42 "/>
</g>
</svg>
