<?xml version="1.0" encoding="UTF-8"?>
<svg xmlns="http://www.w3.org/2000/svg" xmlns:xlink="http://www.w3.org/1999/xlink" viewBox="0 0 32 32" width="32px" height="32px">
<g id="surface2029025">
<path style=" stroke:none;fill-rule:nonzero;fill:rgb(100%,100%,100%);fill-opacity:1;" d="M 8.332031 2.667969 C 6.6875 2.667969 5.332031 4.023438 5.332031 5.667969 L 5.332031 26.332031 C 5.332031 27.976562 6.6875 29.332031 8.332031 29.332031 L 23.667969 29.332031 C 25.3125 29.332031 26.667969 27.976562 26.667969 26.332031 L 26.667969 12.332031 C 26.667969 12.066406 26.5625 11.8125 26.375 11.625 L 26.363281 11.617188 L 17.707031 2.960938 C 17.519531 2.773438 17.265625 2.667969 17 2.667969 Z M 8.332031 4.667969 L 16 4.667969 L 16 10.332031 C 16 11.976562 17.355469 13.332031 19 13.332031 L 24.667969 13.332031 L 24.667969 26.332031 C 24.667969 26.898438 24.230469 27.332031 23.667969 27.332031 L 8.332031 27.332031 C 7.769531 27.332031 7.332031 26.898438 7.332031 26.332031 L 7.332031 5.667969 C 7.332031 5.101562 7.769531 4.667969 8.332031 4.667969 Z M 18 6.082031 L 23.253906 11.332031 L 19 11.332031 C 18.4375 11.332031 18 10.898438 18 10.332031 Z M 16.988281 15.324219 C 16.582031 15.324219 16.214844 15.570312 16.0625 15.945312 C 15.910156 16.324219 16 16.757812 16.292969 17.039062 L 18.585938 19.332031 L 11 19.332031 C 10.640625 19.328125 10.304688 19.519531 10.121094 19.828125 C 9.941406 20.140625 9.941406 20.527344 10.121094 20.835938 C 10.304688 21.148438 10.640625 21.339844 11 21.332031 L 18.585938 21.332031 L 16.292969 23.625 C 16.03125 23.878906 15.925781 24.25 16.019531 24.601562 C 16.109375 24.949219 16.382812 25.222656 16.734375 25.316406 C 17.082031 25.40625 17.457031 25.300781 17.707031 25.039062 L 21.707031 21.039062 C 22.097656 20.648438 22.097656 20.015625 21.707031 19.625 L 17.707031 15.625 C 17.519531 15.433594 17.261719 15.324219 16.988281 15.324219 Z M 16.988281 15.324219 "/>
</g>
</svg>
