<?xml version="1.0" encoding="UTF-8"?>
<svg xmlns="http://www.w3.org/2000/svg" xmlns:xlink="http://www.w3.org/1999/xlink" viewBox="0 0 64 64" width="64px" height="64px">
<g id="surface41834760">
<path style=" stroke:none;fill-rule:nonzero;fill:rgb(100%,100%,100%);fill-opacity:1;" d="M 11 6 L 11 58 L 46.074219 58 L 43.960938 54 L 15 54 L 15 42 L 48.332031 42 L 49 34 L 53 34 L 53 24.152344 C 53 22.117188 52.28125 20.144531 50.96875 18.585938 L 42.109375 8.042969 C 41.019531 6.746094 39.417969 6 37.722656 6 Z M 15 10 L 36.695312 10 C 39.984375 10 41 11.363281 41 12.582031 C 41 14.363281 39 17 39 17 C 47.738281 21.136719 48.839844 21.425781 48.976562 24 L 15 24 Z M 31.710938 27.789062 C 32.789062 27.789062 33.734375 28 34.484375 28.566406 L 33.960938 30.433594 C 33.296875 29.882812 32.660156 29.65625 31.695312 29.65625 C 30.878906 29.65625 30.308594 29.9375 30.308594 30.375 C 30.308594 30.984375 30.949219 31.296875 32.023438 31.875 C 33.734375 32.796875 34.90625 33.65625 34.90625 35.242188 C 34.910156 37.292969 33.578125 38.230469 31.472656 38.230469 C 30.441406 38.230469 29.222656 37.890625 28.386719 37.269531 L 29.09375 35.5 C 29.789062 36.019531 30.636719 36.40625 31.527344 36.40625 C 32.546875 36.40625 33.011719 35.910156 33.011719 35.144531 C 33.011719 34.464844 32.390625 34.15625 31.472656 33.632812 C 30.328125 32.980469 28.515625 32.429688 28.515625 30.449219 C 28.515625 28.722656 30.042969 27.789062 31.710938 27.789062 Z M 23.097656 27.792969 C 24.667969 27.792969 25.839844 28.457031 26.617188 29.796875 L 24.976562 30.816406 C 24.425781 30.082031 23.847656 29.785156 23.097656 29.785156 C 21.699219 29.785156 20.847656 31.015625 20.847656 32.996094 C 20.847656 34.847656 21.8125 36.222656 23.15625 36.222656 C 23.792969 36.222656 24.539062 35.808594 25.007812 35.300781 L 26.523438 36.335938 C 25.671875 37.59375 24.527344 38.230469 23.097656 38.230469 C 20.679688 38.230469 18.953125 36.007812 18.953125 32.996094 C 18.953125 30.039062 20.550781 27.792969 23.097656 27.792969 Z M 36.46875 27.933594 L 38.4375 27.933594 L 40.613281 35.753906 L 42.808594 27.933594 L 44.785156 27.933594 L 41.746094 38.089844 L 39.425781 38.089844 Z M 52 36 L 51.070312 49 L 44 49 L 54 64 L 64 49 L 56.929688 49 L 56 36 Z M 52 36 "/>
</g>
</svg>
