<?xml version="1.0" encoding="UTF-8"?>
<svg xmlns="http://www.w3.org/2000/svg" xmlns:xlink="http://www.w3.org/1999/xlink" viewBox="0 0 32 32" width="32px" height="32px">
<g id="surface5727705">
<path style=" stroke:none;fill-rule:nonzero;fill:rgb(100%,100%,100%);fill-opacity:1;" d="M 18.984375 3.984375 C 18.9375 3.988281 18.886719 3.992188 18.839844 4 L 7 4 C 4.988281 4 3.332031 5.652344 3.332031 7.667969 L 3.332031 24.332031 C 3.332031 26.347656 4.988281 28 7 28 L 18.835938 28 C 18.941406 28.019531 19.054688 28.019531 19.160156 28 L 25 28 C 27.011719 28 28.667969 26.347656 28.667969 24.332031 L 28.667969 7.667969 C 28.667969 5.652344 27.011719 4 25 4 L 19.164062 4 C 19.105469 3.988281 19.042969 3.984375 18.984375 3.984375 Z M 7 6 L 18 6 L 18 26 L 7 26 C 6.066406 26 5.332031 25.265625 5.332031 24.332031 L 5.332031 7.667969 C 5.332031 6.734375 6.066406 6 7 6 Z M 20 6 L 25 6 C 25.933594 6 26.667969 6.734375 26.667969 7.667969 L 26.667969 24.332031 C 26.667969 25.265625 25.933594 26 25 26 L 20 26 Z M 11.3125 11.992188 C 11.054688 12 10.808594 12.105469 10.625 12.292969 L 7.625 15.292969 C 7.234375 15.683594 7.234375 16.316406 7.625 16.707031 L 10.625 19.707031 C 10.878906 19.96875 11.25 20.074219 11.601562 19.980469 C 11.949219 19.890625 12.222656 19.617188 12.316406 19.265625 C 12.40625 18.917969 12.300781 18.542969 12.039062 18.292969 L 10.746094 16.996094 L 15.667969 16.988281 C 16.03125 16.992188 16.363281 16.800781 16.546875 16.488281 C 16.726562 16.175781 16.726562 15.792969 16.542969 15.480469 C 16.359375 15.167969 16.023438 14.980469 15.664062 14.988281 L 10.75 14.996094 L 12.039062 13.707031 C 12.335938 13.417969 12.425781 12.980469 12.261719 12.601562 C 12.101562 12.222656 11.726562 11.980469 11.3125 11.992188 Z M 11.3125 11.992188 "/>
</g>
</svg>
