<?xml version="1.0" encoding="UTF-8"?>
<svg xmlns="http://www.w3.org/2000/svg" xmlns:xlink="http://www.w3.org/1999/xlink" viewBox="0 0 32 32" width="32px" height="32px">
<g id="surface5621366">
<path style=" stroke:none;fill-rule:nonzero;fill:rgb(100%,100%,100%);fill-opacity:1;" d="M 18.984375 3.984375 C 18.9375 3.988281 18.886719 3.992188 18.839844 4 L 7 4 C 4.988281 4 3.332031 5.652344 3.332031 7.667969 L 3.332031 24.332031 C 3.332031 26.347656 4.988281 28 7 28 L 18.835938 28 C 18.941406 28.019531 19.054688 28.019531 19.160156 28 L 25 28 C 27.011719 28 28.667969 26.347656 28.667969 24.332031 L 28.667969 7.667969 C 28.667969 5.652344 27.011719 4 25 4 L 19.164062 4 C 19.105469 3.988281 19.042969 3.984375 18.984375 3.984375 Z M 7 6 L 18 6 L 18 26 L 7 26 C 6.066406 26 5.332031 25.265625 5.332031 24.332031 L 5.332031 7.667969 C 5.332031 6.734375 6.066406 6 7 6 Z M 20 6 L 25 6 C 25.933594 6 26.667969 6.734375 26.667969 7.667969 L 26.667969 24.332031 C 26.667969 25.265625 25.933594 26 25 26 L 20 26 Z M 12.65625 11.988281 C 12.25 11.988281 11.882812 12.238281 11.730469 12.613281 C 11.578125 12.992188 11.667969 13.421875 11.960938 13.707031 L 13.25 14.996094 L 8.335938 14.988281 C 7.976562 14.980469 7.640625 15.167969 7.457031 15.480469 C 7.273438 15.792969 7.273438 16.175781 7.453125 16.488281 C 7.636719 16.800781 7.96875 16.992188 8.332031 16.988281 L 13.253906 16.996094 L 11.960938 18.292969 C 11.699219 18.542969 11.59375 18.917969 11.683594 19.265625 C 11.777344 19.617188 12.050781 19.890625 12.398438 19.980469 C 12.75 20.074219 13.121094 19.96875 13.375 19.707031 L 16.375 16.707031 C 16.765625 16.316406 16.765625 15.683594 16.375 15.292969 L 13.375 12.292969 C 13.183594 12.097656 12.925781 11.988281 12.65625 11.988281 Z M 12.65625 11.988281 "/>
</g>
</svg>
