<svg width="32" height="32" viewBox="0 0 32 32" fill="none" xmlns="http://www.w3.org/2000/svg">
<path d="M5 5V27H27V5H5ZM7 7H25V25H7V7Z" fill="white"/>
<path d="M19.2415 13.9091C19.2415 10.5781 17.1733 8.67898 14.4737 8.67898C11.7592 8.67898 9.70597 10.5781 9.70597 13.9091C9.70597 17.2251 11.7592 19.1392 14.4737 19.1392C17.1733 19.1392 19.2415 17.2401 19.2415 13.9091ZM17.0589 13.9091C17.0589 16.0668 16.0348 17.2351 14.4737 17.2351C12.9077 17.2351 11.8885 16.0668 11.8885 13.9091C11.8885 11.7514 12.9077 10.5831 14.4737 10.5831C16.0348 10.5831 17.0589 11.7514 17.0589 13.9091Z" fill="white"/>
<path d="M18.429 23H22.7358V21.8665H20.3778V21.8295L21.0739 21.1875C22.3352 20.0881 22.6648 19.5284 22.6648 18.8608C22.6648 17.8125 21.8097 17.1023 20.4886 17.1023C19.2017 17.1023 18.3409 17.8438 18.3438 19.0284H19.6761C19.6761 18.5028 20 18.1989 20.483 18.1989C20.9574 18.1989 21.3011 18.4915 21.3011 18.9716C21.3011 19.4062 21.0284 19.7017 20.5511 20.1307L18.429 21.9886V23Z" fill="white"/>
</svg>
