<?xml version="1.0" encoding="UTF-8"?>
<svg xmlns="http://www.w3.org/2000/svg" xmlns:xlink="http://www.w3.org/1999/xlink" viewBox="0 0 32 32" width="32px" height="32px">
<g id="surface11215263">
<path style=" stroke:none;fill-rule:nonzero;fill:rgb(100%,100%,100%);fill-opacity:1;" d="M 16 4 C 9.382812 4 4 9.382812 4 16 C 4 22.617188 9.382812 28 16 28 C 22.617188 28 28 22.617188 28 16 C 28 9.382812 22.617188 4 16 4 Z M 16 6 C 21.535156 6 26 10.464844 26 16 C 26 21.535156 21.535156 26 16 26 C 10.464844 26 6 21.535156 6 16 C 6 10.464844 10.464844 6 16 6 Z M 18.15625 8.75 L 17.46875 9.6875 L 15.21875 12.78125 C 13.925781 12.667969 12.582031 12.980469 11.59375 13.96875 L 10.90625 14.65625 L 11.59375 15.375 L 13.40625 17.1875 L 10 20.59375 L 10 22 L 11.40625 22 L 14.8125 18.59375 L 16.625 20.40625 L 17.34375 21.09375 L 18.0625 20.40625 C 19.050781 19.417969 19.328125 18.074219 19.21875 16.78125 L 22.3125 14.53125 L 23.25 13.84375 L 22.40625 13.03125 L 18.96875 9.59375 Z M 18.375 11.8125 L 20.1875 13.625 L 17.65625 15.46875 L 17.125 15.875 L 17.28125 16.53125 C 17.417969 17.058594 17.355469 17.585938 17.15625 18.09375 L 13.90625 14.84375 C 14.414062 14.644531 14.941406 14.582031 15.46875 14.71875 L 16.125 14.875 L 16.53125 14.34375 Z M 18.375 11.8125 "/>
</g>
</svg>
