<?xml version="1.0" encoding="UTF-8"?>
<svg xmlns="http://www.w3.org/2000/svg" xmlns:xlink="http://www.w3.org/1999/xlink" viewBox="0 0 32 32" width="32px" height="32px">
<g id="surface22330307">
<path style=" stroke:none;fill-rule:nonzero;fill:rgb(100%,100%,100%);fill-opacity:1;" d="M 16 2.667969 C 8.648438 2.667969 2.667969 8.648438 2.667969 16 C 2.667969 23.351562 8.648438 29.332031 16 29.332031 C 23.351562 29.332031 29.332031 23.351562 29.332031 16 C 29.332031 8.648438 23.351562 2.667969 16 2.667969 Z M 16 4.667969 C 22.269531 4.667969 27.332031 9.730469 27.332031 16 C 27.332031 22.269531 22.269531 27.332031 16 27.332031 C 9.730469 27.332031 4.667969 22.269531 4.667969 16 C 4.667969 9.730469 9.730469 4.667969 16 4.667969 Z M 10 14 C 8.894531 14 8 14.894531 8 16 C 8 17.105469 8.894531 18 10 18 C 11.105469 18 12 17.105469 12 16 C 12 14.894531 11.105469 14 10 14 Z M 16 14 C 14.894531 14 14 14.894531 14 16 C 14 17.105469 14.894531 18 16 18 C 17.105469 18 18 17.105469 18 16 C 18 14.894531 17.105469 14 16 14 Z M 22 14 C 20.894531 14 20 14.894531 20 16 C 20 17.105469 20.894531 18 22 18 C 23.105469 18 24 17.105469 24 16 C 24 14.894531 23.105469 14 22 14 Z M 22 14 "/>
</g>
</svg>
