<?xml version="1.0" encoding="UTF-8"?>
<svg xmlns="http://www.w3.org/2000/svg" xmlns:xlink="http://www.w3.org/1999/xlink" viewBox="0 0 32 32" width="32px" height="32px">
<g id="surface1942071">
<path style=" stroke:none;fill-rule:nonzero;fill:rgb(100%,100%,100%);fill-opacity:1;" d="M 8.332031 2.667969 C 6.679688 2.667969 5.332031 4.011719 5.332031 5.667969 L 5.332031 26.332031 C 5.332031 27.988281 6.679688 29.332031 8.332031 29.332031 L 17.09375 29.332031 C 16.523438 28.742188 16.035156 28.070312 15.652344 27.332031 L 8.332031 27.332031 C 7.78125 27.332031 7.332031 26.882812 7.332031 26.332031 L 7.332031 5.667969 C 7.332031 5.117188 7.78125 4.667969 8.332031 4.667969 L 16 4.667969 L 16 10.332031 C 16 11.988281 17.347656 13.332031 19 13.332031 L 24.667969 13.332031 L 24.667969 14.78125 C 25.363281 14.886719 26.035156 15.070312 26.667969 15.335938 L 26.667969 12.332031 C 26.667969 12.058594 26.554688 11.808594 26.375 11.625 L 17.707031 2.960938 C 17.527344 2.777344 17.277344 2.667969 17 2.667969 Z M 18 6.082031 L 23.253906 11.332031 L 19 11.332031 C 18.449219 11.332031 18 10.882812 18 10.332031 Z M 23.332031 16 C 19.285156 16 16 19.285156 16 23.332031 C 16 27.382812 19.285156 30.667969 23.332031 30.667969 C 27.382812 30.667969 30.667969 27.382812 30.667969 23.332031 C 30.667969 19.285156 27.382812 16 23.332031 16 Z M 23.332031 18 C 23.703125 18 24 18.296875 24 18.667969 L 24 22.667969 L 28 22.667969 C 28.367188 22.667969 28.667969 22.964844 28.667969 23.332031 C 28.667969 23.703125 28.367188 24 28 24 L 24 24 L 24 28 C 24 28.367188 23.703125 28.667969 23.332031 28.667969 C 22.964844 28.667969 22.667969 28.367188 22.667969 28 L 22.667969 24 L 18.667969 24 C 18.296875 24 18 23.703125 18 23.332031 C 18 22.964844 18.296875 22.667969 18.667969 22.667969 L 22.667969 22.667969 L 22.667969 18.667969 C 22.667969 18.296875 22.964844 18 23.332031 18 Z M 23.332031 18 "/>
</g>
</svg>
