<?xml version="1.0" encoding="UTF-8"?>
<svg xmlns="http://www.w3.org/2000/svg" xmlns:xlink="http://www.w3.org/1999/xlink" viewBox="0 0 32 32" width="32px" height="32px">
<g id="surface4201990">
<path style=" stroke:none;fill-rule:nonzero;fill:rgb(100%,100%,100%);fill-opacity:1;" d="M 11.332031 1.332031 C 7.664062 1.332031 4.667969 4.328125 4.667969 8 C 4.667969 11.671875 7.664062 14.667969 11.332031 14.667969 C 15.003906 14.667969 18 11.671875 18 8 C 18 4.328125 15.003906 1.332031 11.332031 1.332031 Z M 11.332031 3.332031 C 13.921875 3.332031 16 5.410156 16 8 C 16 10.589844 13.921875 12.667969 11.332031 12.667969 C 8.746094 12.667969 6.667969 10.589844 6.667969 8 C 6.667969 5.410156 8.746094 3.332031 11.332031 3.332031 Z M 23.332031 16 C 19.285156 16 16 19.285156 16 23.332031 C 16 27.382812 19.285156 30.667969 23.332031 30.667969 C 27.382812 30.667969 30.667969 27.382812 30.667969 23.332031 C 30.667969 19.285156 27.382812 16 23.332031 16 Z M 4.148438 17.332031 C 2.78125 17.332031 1.667969 18.523438 1.667969 19.984375 L 1.667969 21 C 1.667969 23.1875 2.796875 25.089844 4.851562 26.351562 C 6.578125 27.414062 8.878906 28 11.332031 28 C 12.792969 28 14.289062 27.785156 15.652344 27.339844 C 15.34375 26.753906 15.109375 26.125 14.941406 25.46875 C 13.8125 25.824219 12.558594 26 11.332031 26 C 7.640625 26 3.667969 24.433594 3.667969 21 L 3.667969 19.984375 C 3.667969 19.632812 3.886719 19.332031 4.148438 19.332031 L 15.648438 19.332031 C 16.03125 18.597656 16.519531 17.925781 17.089844 17.332031 Z M 23.332031 18 C 23.703125 18 24 18.296875 24 18.667969 L 24 22.667969 L 28 22.667969 C 28.367188 22.667969 28.667969 22.964844 28.667969 23.332031 C 28.667969 23.703125 28.367188 24 28 24 L 24 24 L 24 28 C 24 28.367188 23.703125 28.667969 23.332031 28.667969 C 22.964844 28.667969 22.667969 28.367188 22.667969 28 L 22.667969 24 L 18.667969 24 C 18.296875 24 18 23.703125 18 23.332031 C 18 22.964844 18.296875 22.667969 18.667969 22.667969 L 22.667969 22.667969 L 22.667969 18.667969 C 22.667969 18.296875 22.964844 18 23.332031 18 Z M 23.332031 18 "/>
</g>
</svg>
