<?xml version="1.0" encoding="UTF-8"?>
<svg xmlns="http://www.w3.org/2000/svg" xmlns:xlink="http://www.w3.org/1999/xlink" viewBox="0 0 32 32" width="32px" height="32px">
<g id="surface1952182">
<path style=" stroke:none;fill-rule:nonzero;fill:rgb(100%,100%,100%);fill-opacity:1;" d="M 8.332031 2.667969 C 6.6875 2.667969 5.332031 4.023438 5.332031 5.667969 L 5.332031 26.332031 C 5.332031 27.976562 6.6875 29.332031 8.332031 29.332031 L 23.667969 29.332031 C 24.019531 29.332031 24.351562 29.261719 24.667969 29.148438 L 24.667969 26.667969 L 24.605469 26.667969 C 24.46875 27.054688 24.101562 27.332031 23.667969 27.332031 L 8.332031 27.332031 C 7.769531 27.332031 7.332031 26.898438 7.332031 26.332031 L 7.332031 5.667969 C 7.332031 5.101562 7.769531 4.667969 8.332031 4.667969 L 16 4.667969 L 16 10.332031 C 16 11.976562 17.355469 13.332031 19 13.332031 L 24.667969 13.332031 L 24.667969 19.367188 L 25.351562 18.683594 C 25.710938 18.324219 26.179688 18.109375 26.667969 18.042969 L 26.667969 12.332031 C 26.667969 12.066406 26.5625 11.8125 26.375 11.625 L 26.363281 11.617188 L 17.707031 2.960938 C 17.519531 2.773438 17.265625 2.667969 17 2.667969 Z M 18 6.082031 L 23.253906 11.332031 L 19 11.332031 C 18.4375 11.332031 18 10.898438 18 10.332031 Z M 27 19.332031 C 26.742188 19.332031 26.488281 19.429688 26.292969 19.625 L 22.960938 22.960938 C 22.570312 23.351562 22.570312 23.984375 22.960938 24.375 C 23.351562 24.765625 23.984375 24.765625 24.375 24.375 L 26 22.746094 L 26 29.667969 C 26 30.21875 26.449219 30.667969 27 30.667969 C 27.550781 30.667969 28 30.21875 28 29.667969 L 28 22.746094 L 29.625 24.375 C 30.015625 24.765625 30.648438 24.765625 31.039062 24.375 C 31.429688 23.984375 31.429688 23.351562 31.039062 22.960938 L 27.707031 19.625 C 27.511719 19.429688 27.257812 19.332031 27 19.332031 Z M 27 19.332031 "/>
</g>
</svg>
