<?xml version="1.0" encoding="UTF-8"?>
<svg xmlns="http://www.w3.org/2000/svg" xmlns:xlink="http://www.w3.org/1999/xlink" viewBox="0 0 32 32" width="32px" height="32px">
<g id="surface817311">
<path style=" stroke:none;fill-rule:nonzero;fill:rgb(10.196079%,73.725492%,61.176473%);fill-opacity:1;" d="M 8.535156 4.265625 C 7.355469 4.265625 6.398438 5.222656 6.398438 6.398438 L 6.398438 25.601562 C 6.398438 26.777344 7.355469 27.734375 8.535156 27.734375 L 10.667969 27.734375 C 11.84375 27.734375 12.800781 26.777344 12.800781 25.601562 L 12.800781 6.398438 C 12.800781 5.222656 11.84375 4.265625 10.667969 4.265625 Z M 21.332031 4.265625 C 20.15625 4.265625 19.199219 5.222656 19.199219 6.398438 L 19.199219 25.601562 C 19.199219 26.777344 20.15625 27.734375 21.332031 27.734375 L 23.464844 27.734375 C 24.644531 27.734375 25.601562 26.777344 25.601562 25.601562 L 25.601562 6.398438 C 25.601562 5.222656 24.644531 4.265625 23.464844 4.265625 Z M 21.332031 4.265625 "/>
</g>
</svg>
