<?xml version="1.0" encoding="UTF-8"?>
<svg xmlns="http://www.w3.org/2000/svg" xmlns:xlink="http://www.w3.org/1999/xlink" viewBox="0 0 32 32" width="32px" height="32px">
<g id="surface11454157">
<path style=" stroke:none;fill-rule:nonzero;fill:rgb(100%,100%,100%);fill-opacity:1;" d="M 20.34375 1.992188 C 19.878906 1.984375 19.472656 2.292969 19.355469 2.738281 C 19.238281 3.183594 19.441406 3.65625 19.847656 3.875 L 22.476562 5.332031 L 18.332031 5.332031 C 17.78125 5.332031 17.332031 5.78125 17.332031 6.332031 L 17.332031 8 L 8 8 C 5.066406 8 2.667969 10.398438 2.667969 13.332031 C 2.667969 16.265625 5.066406 18.667969 8 18.667969 L 23.332031 18.667969 C 25.1875 18.667969 26.667969 20.148438 26.667969 22 C 26.667969 23.851562 25.1875 25.332031 23.332031 25.332031 L 4.332031 25.332031 C 3.972656 25.328125 3.636719 25.519531 3.457031 25.828125 C 3.273438 26.140625 3.273438 26.527344 3.457031 26.835938 C 3.636719 27.148438 3.972656 27.339844 4.332031 27.332031 L 23.332031 27.332031 C 26.265625 27.332031 28.667969 24.933594 28.667969 22 C 28.667969 19.066406 26.265625 16.667969 23.332031 16.667969 L 8 16.667969 C 6.148438 16.667969 4.667969 15.1875 4.667969 13.332031 C 4.667969 11.480469 6.148438 10 8 10 L 17.332031 10 L 17.332031 11.667969 C 17.332031 12.21875 17.78125 12.667969 18.332031 12.667969 L 27.667969 12.667969 C 28.21875 12.667969 28.667969 12.21875 28.667969 11.667969 L 28.667969 6.332031 C 28.667969 5.78125 28.21875 5.332031 27.667969 5.332031 L 26.589844 5.332031 L 20.820312 2.125 C 20.671875 2.042969 20.511719 1.996094 20.34375 1.992188 Z M 19.332031 7.332031 L 26.195312 7.332031 C 26.304688 7.351562 26.421875 7.351562 26.53125 7.332031 L 26.667969 7.332031 L 26.667969 10.667969 L 19.332031 10.667969 L 19.332031 9.164062 C 19.351562 9.058594 19.351562 8.945312 19.332031 8.839844 Z M 19.332031 7.332031 "/>
</g>
</svg>
