<?xml version="1.0" encoding="UTF-8"?>
<svg xmlns="http://www.w3.org/2000/svg" xmlns:xlink="http://www.w3.org/1999/xlink" viewBox="0 0 32 32" width="32px" height="32px">
<g id="surface2061053">
<path style=" stroke:none;fill-rule:nonzero;fill:rgb(100%,100%,100%);fill-opacity:1;" d="M 4.984375 3.984375 C 4.433594 3.996094 3.992188 4.449219 4 5 L 4 27 C 4 27.550781 4.449219 28 5 28 L 27 28 C 27.359375 28.003906 27.695312 27.816406 27.878906 27.503906 C 28.058594 27.191406 28.058594 26.808594 27.878906 26.496094 C 27.695312 26.183594 27.359375 25.996094 27 26 L 6 26 L 6 5 C 6.003906 4.730469 5.898438 4.46875 5.707031 4.277344 C 5.515625 4.085938 5.253906 3.980469 4.984375 3.984375 Z M 21 4 C 20.449219 4 20 4.449219 20 5 C 20 5.550781 20.449219 6 21 6 C 21.550781 6 22 5.550781 22 5 C 22 4.449219 21.550781 4 21 4 Z M 27 9.332031 C 26.449219 9.332031 26 9.78125 26 10.332031 C 26 10.886719 26.449219 11.332031 27 11.332031 C 27.550781 11.332031 28 10.886719 28 10.332031 C 28 9.78125 27.550781 9.332031 27 9.332031 Z M 19.667969 10 C 19.113281 10 18.667969 10.449219 18.667969 11 C 18.667969 11.550781 19.113281 12 19.667969 12 C 20.21875 12 20.667969 11.550781 20.667969 11 C 20.667969 10.449219 20.21875 10 19.667969 10 Z M 13.667969 12.667969 C 13.113281 12.667969 12.667969 13.113281 12.667969 13.667969 C 12.667969 14.21875 13.113281 14.667969 13.667969 14.667969 C 14.21875 14.667969 14.667969 14.21875 14.667969 13.667969 C 14.667969 13.113281 14.21875 12.667969 13.667969 12.667969 Z M 23.667969 14.667969 C 23.113281 14.667969 22.667969 15.113281 22.667969 15.667969 C 22.667969 16.21875 23.113281 16.667969 23.667969 16.667969 C 24.21875 16.667969 24.667969 16.21875 24.667969 15.667969 C 24.667969 15.113281 24.21875 14.667969 23.667969 14.667969 Z M 19 16.667969 C 18.449219 16.667969 18 17.113281 18 17.667969 C 18 18.21875 18.449219 18.667969 19 18.667969 C 19.550781 18.667969 20 18.21875 20 17.667969 C 20 17.113281 19.550781 16.667969 19 16.667969 Z M 14.332031 17.332031 C 13.78125 17.332031 13.332031 17.78125 13.332031 18.332031 C 13.332031 18.886719 13.78125 19.332031 14.332031 19.332031 C 14.886719 19.332031 15.332031 18.886719 15.332031 18.332031 C 15.332031 17.78125 14.886719 17.332031 14.332031 17.332031 Z M 9.667969 19.332031 C 9.113281 19.332031 8.667969 19.78125 8.667969 20.332031 C 8.667969 20.886719 9.113281 21.332031 9.667969 21.332031 C 10.21875 21.332031 10.667969 20.886719 10.667969 20.332031 C 10.667969 19.78125 10.21875 19.332031 9.667969 19.332031 Z M 14.332031 21.332031 C 13.78125 21.332031 13.332031 21.78125 13.332031 22.332031 C 13.332031 22.886719 13.78125 23.332031 14.332031 23.332031 C 14.886719 23.332031 15.332031 22.886719 15.332031 22.332031 C 15.332031 21.78125 14.886719 21.332031 14.332031 21.332031 Z M 14.332031 21.332031 "/>
</g>
</svg>
