<?xml version="1.0" encoding="UTF-8"?>
<svg xmlns="http://www.w3.org/2000/svg" xmlns:xlink="http://www.w3.org/1999/xlink" viewBox="0 0 32 32" width="32px" height="32px">
<g id="surface83757976">
<path style=" stroke:none;fill-rule:nonzero;fill:rgb(100%,100%,100%);fill-opacity:1;" d="M 6 3 L 6 29 L 8 29 L 8 5 L 18 5 L 18 11 L 24 11 L 24 16 L 26 16 L 26 9.585938 L 19.414062 3 Z M 20 6.414062 L 22.585938 9 L 20 9 Z M 25 18 C 24.363281 18 23.761719 18.304688 23.386719 18.820312 C 23.011719 19.335938 22.902344 20 23.097656 20.609375 L 20.316406 24.027344 C 20.210938 24.007812 20.105469 24 20 24 C 19.824219 24 19.652344 24.023438 19.484375 24.070312 L 17.933594 22.515625 C 18.09375 21.917969 17.964844 21.277344 17.585938 20.78125 C 17.207031 20.289062 16.621094 20 16 20 C 15.339844 20 14.722656 20.328125 14.351562 20.871094 C 13.980469 21.417969 13.898438 22.109375 14.140625 22.722656 L 12.300781 25.023438 C 12.203125 25.007812 12.101562 25 12 25 C 10.894531 25 10 25.894531 10 27 C 10 28.105469 10.894531 29 12 29 C 12.660156 29 13.277344 28.671875 13.648438 28.128906 C 14.019531 27.582031 14.101562 26.890625 13.863281 26.273438 L 15.703125 23.976562 C 15.800781 23.992188 15.898438 24 16 24 C 16.175781 24 16.347656 23.976562 16.515625 23.929688 L 18.070312 25.480469 C 17.90625 26.082031 18.035156 26.722656 18.414062 27.21875 C 18.792969 27.710938 19.378906 28 20 28 C 20.65625 28 21.273438 27.675781 21.644531 27.132812 C 22.019531 26.59375 22.101562 25.902344 21.867188 25.289062 L 24.582031 21.953125 C 24.71875 21.984375 24.859375 22 25 22 C 26.105469 22 27 21.105469 27 20 C 27 18.894531 26.105469 18 25 18 Z M 25 18 "/>
</g>
</svg>
