<?xml version="1.0" encoding="UTF-8"?>
<svg xmlns="http://www.w3.org/2000/svg" xmlns:xlink="http://www.w3.org/1999/xlink" viewBox="0 0 32 32" width="32px" height="32px">
<g id="surface1909721">
<path style=" stroke:none;fill-rule:nonzero;fill:rgb(100%,100%,100%);fill-opacity:1;" d="M 8.332031 2.667969 C 6.6875 2.667969 5.332031 4.023438 5.332031 5.667969 L 5.332031 15.667969 C 5.328125 16.027344 5.519531 16.363281 5.828125 16.542969 C 6.140625 16.726562 6.527344 16.726562 6.835938 16.542969 C 7.148438 16.363281 7.339844 16.027344 7.332031 15.667969 L 7.332031 5.667969 C 7.332031 5.101562 7.769531 4.667969 8.332031 4.667969 L 16 4.667969 L 16 10.332031 C 16 11.976562 17.355469 13.332031 19 13.332031 L 24.667969 13.332031 L 24.667969 26.332031 C 24.667969 26.898438 24.230469 27.332031 23.667969 27.332031 L 8.332031 27.332031 C 7.769531 27.332031 7.332031 26.898438 7.332031 26.332031 L 7.332031 23.667969 C 7.339844 23.304688 7.148438 22.96875 6.835938 22.789062 C 6.527344 22.605469 6.140625 22.605469 5.828125 22.789062 C 5.519531 22.96875 5.328125 23.304688 5.332031 23.667969 L 5.332031 26.332031 C 5.332031 27.976562 6.6875 29.332031 8.332031 29.332031 L 23.667969 29.332031 C 25.3125 29.332031 26.667969 27.976562 26.667969 26.332031 L 26.667969 12.332031 C 26.667969 12.066406 26.5625 11.8125 26.375 11.625 L 26.363281 11.617188 L 17.707031 2.960938 C 17.519531 2.773438 17.265625 2.667969 17 2.667969 Z M 18 6.082031 L 23.253906 11.332031 L 19 11.332031 C 18.4375 11.332031 18 10.898438 18 10.332031 Z M 12.625 14 C 12.234375 14.015625 11.890625 14.257812 11.742188 14.621094 L 9.574219 19.914062 L 9.226562 19.21875 C 9.058594 18.882812 8.710938 18.667969 8.332031 18.667969 L 6.332031 18.667969 C 5.972656 18.660156 5.636719 18.851562 5.457031 19.164062 C 5.273438 19.472656 5.273438 19.859375 5.457031 20.171875 C 5.636719 20.480469 5.972656 20.671875 6.332031 20.667969 L 7.714844 20.667969 L 8.773438 22.78125 C 8.949219 23.132812 9.3125 23.347656 9.703125 23.332031 C 10.097656 23.316406 10.445312 23.074219 10.59375 22.710938 L 12.554688 17.917969 L 14.714844 24.640625 C 14.839844 25.027344 15.1875 25.300781 15.589844 25.328125 C 15.996094 25.359375 16.378906 25.144531 16.5625 24.78125 L 18.953125 20 L 19.667969 20 C 19.984375 20.417969 20.476562 20.667969 21 20.667969 C 21.921875 20.667969 22.667969 19.921875 22.667969 19 C 22.667969 18.078125 21.921875 17.332031 21 17.332031 C 20.476562 17.332031 19.984375 17.582031 19.667969 18 L 18.332031 18 C 17.953125 18 17.609375 18.214844 17.4375 18.554688 L 15.867188 21.695312 L 13.617188 14.695312 C 13.480469 14.265625 13.074219 13.984375 12.625 14 Z M 12.625 14 "/>
</g>
</svg>
