<?xml version="1.0" encoding="UTF-8"?>
<svg xmlns="http://www.w3.org/2000/svg" xmlns:xlink="http://www.w3.org/1999/xlink" viewBox="0 0 32 32" width="32px" height="32px">
<g id="surface4174726">
<path style=" stroke:none;fill-rule:nonzero;fill:rgb(100%,100%,100%);fill-opacity:1;" d="M 8.332031 2.667969 C 6.679688 2.667969 5.332031 4.011719 5.332031 5.667969 L 5.332031 26.332031 C 5.332031 27.988281 6.679688 29.332031 8.332031 29.332031 L 23.667969 29.332031 C 25.320312 29.332031 26.667969 27.988281 26.667969 26.332031 L 26.667969 12.332031 C 26.667969 12.058594 26.554688 11.808594 26.375 11.625 L 17.707031 2.960938 C 17.527344 2.777344 17.277344 2.667969 17 2.667969 Z M 8.332031 4.667969 L 16 4.667969 L 16 10.332031 C 16 11.988281 17.347656 13.332031 19 13.332031 L 24.667969 13.332031 L 24.667969 26.332031 C 24.667969 26.882812 24.21875 27.332031 23.667969 27.332031 L 8.332031 27.332031 C 7.78125 27.332031 7.332031 26.886719 7.332031 26.332031 L 7.332031 5.667969 C 7.332031 5.113281 7.78125 4.667969 8.332031 4.667969 Z M 18 6.082031 L 23.253906 11.332031 L 19 11.332031 C 18.445312 11.332031 18 10.886719 18 10.332031 Z M 21.332031 16.667969 C 20.628906 16.667969 20.046875 17.214844 20.003906 17.914062 L 17.332031 20.585938 L 15.328125 18.582031 C 15.285156 17.878906 14.703125 17.332031 14 17.332031 C 13.296875 17.332031 12.714844 17.878906 12.671875 18.582031 L 10.582031 20.671875 C 9.871094 20.722656 9.328125 21.328125 9.351562 22.042969 C 9.371094 22.753906 9.953125 23.324219 10.667969 23.332031 C 11.371094 23.332031 11.953125 22.785156 11.996094 22.085938 L 14 20.082031 L 16.003906 22.085938 C 16.046875 22.785156 16.628906 23.332031 17.332031 23.332031 C 18.035156 23.332031 18.617188 22.785156 18.664062 22.085938 L 21.417969 19.328125 C 22.128906 19.277344 22.671875 18.671875 22.648438 17.957031 C 22.628906 17.246094 22.046875 16.675781 21.332031 16.667969 Z M 21.332031 16.667969 "/>
</g>
</svg>
