<?xml version="1.0" encoding="UTF-8"?>
<svg xmlns="http://www.w3.org/2000/svg" xmlns:xlink="http://www.w3.org/1999/xlink" viewBox="0 0 32 32" width="32px" height="32px">
<g id="surface97022490">
<path style="fill-rule:nonzero;fill:rgb(18.039216%,80.000001%,44.313726%);fill-opacity:1;stroke-width:15;stroke-linecap:butt;stroke-linejoin:round;stroke:rgb(18.039216%,80.000001%,44.313726%);stroke-opacity:1;stroke-miterlimit:10;" d="M 139.745433 85.999998 C 139.745433 115.622747 115.622747 139.745433 85.999998 139.745433 C 56.377249 139.745433 32.254564 115.622747 32.254564 85.999998 C 32.254564 56.377249 56.377249 32.254564 85.999998 32.254564 C 115.622747 32.254564 139.745433 56.377249 139.745433 85.999998 Z M 43.003651 85.999998 C 43.003651 109.803178 62.196819 128.996346 85.999998 128.996346 C 109.803178 128.996346 128.996346 109.803178 128.996346 85.999998 C 128.996346 62.196819 109.803178 43.003651 85.999998 43.003651 C 62.196819 43.003651 43.003651 62.196819 43.003651 85.999998 Z M 43.003651 85.999998 " transform="matrix(0.171163,0,0,0.171163,1.28,1.28)"/>
<path style=" stroke:none;fill-rule:nonzero;fill:rgb(18.039216%,80.000001%,44.313726%);fill-opacity:1;" d="M 16 6.800781 C 10.929688 6.800781 6.800781 10.929688 6.800781 16 C 6.800781 21.070312 10.929688 25.199219 16 25.199219 C 21.070312 25.199219 25.199219 21.070312 25.199219 16 C 25.199219 10.929688 21.070312 6.800781 16 6.800781 Z M 16 8.640625 C 20.074219 8.640625 23.359375 11.925781 23.359375 16 C 23.359375 20.074219 20.074219 23.359375 16 23.359375 C 11.925781 23.359375 8.640625 20.074219 8.640625 16 C 8.640625 11.925781 11.925781 8.640625 16 8.640625 Z M 16 8.640625 "/>
</g>
</svg>
