<?xml version="1.0" encoding="UTF-8"?>
<svg xmlns="http://www.w3.org/2000/svg" xmlns:xlink="http://www.w3.org/1999/xlink" viewBox="0 0 32 32" width="32px" height="32px">
<g id="surface1955632">
<path style=" stroke:none;fill-rule:nonzero;fill:rgb(100%,100%,100%);fill-opacity:1;" d="M 16 3.332031 C 11.226562 3.332031 7.332031 7.226562 7.332031 12 L 7.332031 19.917969 L 5.039062 17.625 C 4.851562 17.433594 4.59375 17.324219 4.324219 17.324219 C 3.914062 17.324219 3.550781 17.570312 3.394531 17.945312 C 3.242188 18.324219 3.335938 18.757812 3.625 19.039062 L 7.539062 22.953125 C 7.730469 23.203125 8.023438 23.347656 8.335938 23.347656 C 8.648438 23.34375 8.941406 23.199219 9.132812 22.949219 L 13.039062 19.039062 C 13.300781 18.789062 13.40625 18.417969 13.316406 18.066406 C 13.222656 17.714844 12.949219 17.441406 12.601562 17.351562 C 12.25 17.261719 11.878906 17.363281 11.625 17.625 L 9.332031 19.917969 L 9.332031 12 C 9.332031 8.304688 12.304688 5.332031 16 5.332031 C 17.730469 5.332031 19.292969 5.992188 20.480469 7.074219 C 20.742188 7.328125 21.121094 7.417969 21.46875 7.308594 C 21.816406 7.203125 22.078125 6.914062 22.152344 6.554688 C 22.226562 6.199219 22.101562 5.832031 21.824219 5.59375 C 20.289062 4.195312 18.242188 3.332031 16 3.332031 Z M 23.652344 8.652344 C 23.34375 8.65625 23.050781 8.804688 22.867188 9.050781 L 18.960938 12.960938 C 18.699219 13.210938 18.59375 13.582031 18.683594 13.933594 C 18.777344 14.285156 19.050781 14.558594 19.398438 14.648438 C 19.75 14.738281 20.121094 14.636719 20.375 14.375 L 22.667969 12.082031 L 22.667969 20 C 22.667969 23.695312 19.695312 26.667969 16 26.667969 C 14.269531 26.667969 12.707031 26.007812 11.519531 24.925781 C 11.257812 24.671875 10.878906 24.582031 10.53125 24.691406 C 10.183594 24.796875 9.921875 25.085938 9.847656 25.445312 C 9.773438 25.800781 9.898438 26.167969 10.175781 26.40625 C 11.710938 27.804688 13.757812 28.667969 16 28.667969 C 20.773438 28.667969 24.667969 24.773438 24.667969 20 L 24.667969 12.082031 L 26.960938 14.375 C 27.210938 14.636719 27.582031 14.738281 27.933594 14.648438 C 28.285156 14.558594 28.558594 14.285156 28.648438 13.933594 C 28.738281 13.582031 28.636719 13.210938 28.375 12.960938 L 24.460938 9.046875 C 24.265625 8.792969 23.96875 8.648438 23.652344 8.652344 Z M 23.652344 8.652344 "/>
</g>
</svg>
