<?xml version="1.0" encoding="UTF-8"?>
<svg xmlns="http://www.w3.org/2000/svg" xmlns:xlink="http://www.w3.org/1999/xlink" viewBox="0 0 32 32" width="32px" height="32px">
<g id="surface11144305">
<path style=" stroke:none;fill-rule:nonzero;fill:rgb(100%,100%,100%);fill-opacity:1;" d="M 8 4 L 8 6 L 24 6 L 24 4 Z M 9 7 C 8.449219 7 8 7.449219 8 8 C 8 8.550781 8.449219 9 9 9 C 9.550781 9 10 8.550781 10 8 C 10 7.449219 9.550781 7 9 7 Z M 16 7 L 13 11 L 15 11 L 15 21 L 13 21 L 16 25 L 19 21 L 17 21 L 17 11 L 19 11 Z M 23 7 C 22.449219 7 22 7.449219 22 8 C 22 8.550781 22.449219 9 23 9 C 23.550781 9 24 8.550781 24 8 C 24 7.449219 23.550781 7 23 7 Z M 9 11 C 8.449219 11 8 11.449219 8 12 C 8 12.550781 8.449219 13 9 13 C 9.550781 13 10 12.550781 10 12 C 10 11.449219 9.550781 11 9 11 Z M 23 11 C 22.449219 11 22 11.449219 22 12 C 22 12.550781 22.449219 13 23 13 C 23.550781 13 24 12.550781 24 12 C 24 11.449219 23.550781 11 23 11 Z M 9 15 C 8.449219 15 8 15.449219 8 16 C 8 16.550781 8.449219 17 9 17 C 9.550781 17 10 16.550781 10 16 C 10 15.449219 9.550781 15 9 15 Z M 23 15 C 22.449219 15 22 15.449219 22 16 C 22 16.550781 22.449219 17 23 17 C 23.550781 17 24 16.550781 24 16 C 24 15.449219 23.550781 15 23 15 Z M 9 19 C 8.449219 19 8 19.449219 8 20 C 8 20.550781 8.449219 21 9 21 C 9.550781 21 10 20.550781 10 20 C 10 19.449219 9.550781 19 9 19 Z M 23 19 C 22.449219 19 22 19.449219 22 20 C 22 20.550781 22.449219 21 23 21 C 23.550781 21 24 20.550781 24 20 C 24 19.449219 23.550781 19 23 19 Z M 9 23 C 8.449219 23 8 23.449219 8 24 C 8 24.550781 8.449219 25 9 25 C 9.550781 25 10 24.550781 10 24 C 10 23.449219 9.550781 23 9 23 Z M 23 23 C 22.449219 23 22 23.449219 22 24 C 22 24.550781 22.449219 25 23 25 C 23.550781 25 24 24.550781 24 24 C 24 23.449219 23.550781 23 23 23 Z M 8 26 L 8 28 L 24 28 L 24 26 Z M 8 26 "/>
</g>
</svg>
