<?xml version="1.0" encoding="UTF-8"?>
<svg xmlns="http://www.w3.org/2000/svg" xmlns:xlink="http://www.w3.org/1999/xlink" viewBox="0 0 32 32" width="32px" height="32px">
<g id="surface2031064">
<path style=" stroke:none;fill-rule:nonzero;fill:rgb(100%,100%,100%);fill-opacity:1;" d="M 15.652344 1.332031 C 15.390625 1.335938 15.144531 1.441406 14.960938 1.625 L 8.292969 8.292969 C 8.03125 8.542969 7.925781 8.917969 8.019531 9.265625 C 8.109375 9.617188 8.382812 9.890625 8.734375 9.980469 C 9.082031 10.074219 9.457031 9.96875 9.707031 9.707031 L 14.667969 4.746094 L 14.667969 27.253906 L 9.707031 22.292969 C 9.457031 22.03125 9.082031 21.925781 8.734375 22.019531 C 8.382812 22.109375 8.109375 22.382812 8.019531 22.734375 C 7.925781 23.082031 8.03125 23.457031 8.292969 23.707031 L 14.875 30.289062 C 15.0625 30.535156 15.359375 30.679688 15.671875 30.679688 C 15.984375 30.679688 16.277344 30.53125 16.464844 30.28125 L 23.039062 23.707031 C 23.300781 23.457031 23.40625 23.082031 23.316406 22.734375 C 23.222656 22.382812 22.949219 22.109375 22.601562 22.019531 C 22.25 21.925781 21.878906 22.03125 21.625 22.292969 L 16.667969 27.253906 L 16.667969 4.746094 L 21.625 9.707031 C 21.878906 9.96875 22.25 10.074219 22.601562 9.980469 C 22.949219 9.890625 23.222656 9.617188 23.316406 9.265625 C 23.40625 8.917969 23.300781 8.542969 23.039062 8.292969 L 16.375 1.625 C 16.183594 1.433594 15.921875 1.328125 15.652344 1.332031 Z M 15.652344 1.332031 "/>
</g>
</svg>
