<?xml version="1.0" encoding="UTF-8"?>
<svg xmlns="http://www.w3.org/2000/svg" xmlns:xlink="http://www.w3.org/1999/xlink" viewBox="0 0 32 32" width="32px" height="32px">
<g id="surface5617339">
<path style=" stroke:none;fill-rule:nonzero;fill:rgb(100%,100%,100%);fill-opacity:1;" d="M 7.667969 4 C 5.652344 4 4 5.652344 4 7.667969 L 4 24.332031 C 4 26.347656 5.652344 28 7.667969 28 L 24.332031 28 C 26.347656 28 28 26.347656 28 24.332031 L 28 7.667969 C 28 5.652344 26.347656 4 24.332031 4 Z M 7.667969 6 L 15.792969 6 C 15.609375 6.039062 15.433594 6.128906 15.292969 6.269531 L 12.9375 8.625 C 12.546875 9.015625 12.546875 9.648438 12.9375 10.039062 C 13.328125 10.429688 13.960938 10.429688 14.351562 10.039062 L 15 9.390625 L 15 11.667969 C 14.996094 12.027344 15.183594 12.363281 15.496094 12.542969 C 15.808594 12.726562 16.191406 12.726562 16.503906 12.542969 C 16.816406 12.363281 17.003906 12.027344 17 11.667969 L 17 9.390625 L 17.648438 10.039062 C 18.039062 10.429688 18.671875 10.429688 19.066406 10.039062 C 19.457031 9.648438 19.457031 9.015625 19.066406 8.625 L 16.707031 6.269531 C 16.566406 6.128906 16.390625 6.039062 16.210938 6 L 24.332031 6 C 25.265625 6 26 6.734375 26 7.667969 L 26 24.332031 C 26 25.265625 25.265625 26 24.332031 26 L 7.667969 26 C 6.734375 26 6 25.265625 6 24.332031 L 6 7.667969 C 6 6.734375 6.734375 6 7.667969 6 Z M 16 26 C 16.253906 26 16.507812 25.902344 16.703125 25.710938 L 19.042969 23.367188 C 19.429688 22.980469 19.429688 22.351562 19.042969 21.964844 C 18.65625 21.578125 18.027344 21.578125 17.636719 21.964844 L 17 22.601562 L 17 20.332031 C 17.003906 20.0625 16.898438 19.800781 16.707031 19.613281 C 16.515625 19.421875 16.253906 19.316406 15.984375 19.320312 C 15.433594 19.328125 14.992188 19.78125 15 20.332031 L 15 22.601562 L 14.363281 21.964844 C 13.972656 21.578125 13.34375 21.578125 12.957031 21.964844 C 12.570312 22.351562 12.570312 22.980469 12.957031 23.367188 L 15.296875 25.710938 C 15.492188 25.902344 15.746094 26 16 26 Z M 16 26 "/>
</g>
</svg>
