<?xml version="1.0" encoding="UTF-8"?>
<svg xmlns="http://www.w3.org/2000/svg" xmlns:xlink="http://www.w3.org/1999/xlink" viewBox="0 0 32 32" width="32px" height="32px">
<g id="surface2070472">
<path style=" stroke:none;fill-rule:nonzero;fill:rgb(100%,100%,100%);fill-opacity:1;" d="M 11 3.332031 C 9.578125 3.332031 8.347656 4.148438 7.738281 5.332031 L 25 5.332031 C 25.917969 5.332031 26.667969 6.082031 26.667969 7 L 26.667969 24.261719 C 27.851562 23.652344 28.667969 22.421875 28.667969 21 L 28.667969 7 C 28.667969 4.980469 27.019531 3.332031 25 3.332031 Z M 7 7.332031 C 4.988281 7.332031 3.332031 8.988281 3.332031 11 L 3.332031 25 C 3.332031 27.011719 4.988281 28.667969 7 28.667969 L 21 28.667969 C 23.011719 28.667969 24.667969 27.011719 24.667969 25 L 24.667969 11 C 24.667969 8.988281 23.011719 7.332031 21 7.332031 Z M 7 9.332031 L 21 9.332031 C 21.933594 9.332031 22.667969 10.066406 22.667969 11 L 22.667969 25 C 22.667969 25.933594 21.933594 26.667969 21 26.667969 L 7 26.667969 C 6.066406 26.667969 5.332031 25.933594 5.332031 25 L 5.332031 11 C 5.332031 10.066406 6.066406 9.332031 7 9.332031 Z M 7 9.332031 "/>
</g>
</svg>
