<?xml version="1.0" encoding="UTF-8"?>
<svg xmlns="http://www.w3.org/2000/svg" xmlns:xlink="http://www.w3.org/1999/xlink" viewBox="0 0 32 32" width="32px" height="32px">
<g id="surface470258">
<path style=" stroke:none;fill-rule:nonzero;fill:rgb(100%,100%,100%);fill-opacity:1;" d="M 24.984375 3.984375 C 24.433594 3.996094 23.992188 4.449219 24 5 L 24 7.070312 C 21.878906 5.164062 19.074219 4 16 4 C 9.382812 4 4 9.382812 4 16 C 4 22.617188 9.382812 28 16 28 C 22.617188 28 28 22.617188 28 16 C 28 15.367188 27.9375 14.761719 27.847656 14.183594 C 27.804688 13.820312 27.566406 13.515625 27.226562 13.378906 C 26.890625 13.242188 26.507812 13.300781 26.226562 13.53125 C 25.941406 13.761719 25.808594 14.125 25.871094 14.484375 C 25.949219 14.996094 26 15.496094 26 16 C 26 21.535156 21.535156 26 16 26 C 10.464844 26 6 21.535156 6 16 C 6 10.464844 10.464844 6 16 6 C 18.621094 6 20.988281 7.019531 22.765625 8.667969 L 20.332031 8.667969 C 19.972656 8.660156 19.636719 8.851562 19.457031 9.164062 C 19.273438 9.472656 19.273438 9.859375 19.457031 10.171875 C 19.636719 10.480469 19.972656 10.671875 20.332031 10.667969 L 25 10.667969 C 25.007812 10.667969 25.019531 10.664062 25.027344 10.664062 C 25.050781 10.664062 25.074219 10.664062 25.101562 10.660156 C 25.128906 10.660156 25.160156 10.652344 25.191406 10.648438 C 25.214844 10.644531 25.242188 10.636719 25.265625 10.628906 C 25.273438 10.628906 25.28125 10.625 25.285156 10.625 C 25.289062 10.625 25.292969 10.625 25.296875 10.621094 C 25.308594 10.617188 25.316406 10.613281 25.328125 10.609375 C 25.351562 10.601562 25.371094 10.59375 25.390625 10.585938 C 25.417969 10.574219 25.445312 10.5625 25.472656 10.546875 C 25.472656 10.546875 25.476562 10.546875 25.480469 10.542969 C 25.507812 10.53125 25.53125 10.515625 25.558594 10.496094 C 25.558594 10.496094 25.5625 10.492188 25.566406 10.492188 C 25.589844 10.476562 25.613281 10.457031 25.636719 10.4375 C 25.640625 10.433594 25.640625 10.433594 25.644531 10.429688 C 25.667969 10.410156 25.691406 10.390625 25.710938 10.371094 C 25.714844 10.367188 25.714844 10.367188 25.71875 10.363281 C 25.738281 10.339844 25.757812 10.320312 25.777344 10.296875 C 25.78125 10.292969 25.78125 10.289062 25.785156 10.289062 C 25.789062 10.28125 25.792969 10.273438 25.800781 10.265625 C 25.8125 10.246094 25.828125 10.226562 25.839844 10.207031 C 25.859375 10.179688 25.875 10.148438 25.890625 10.121094 C 25.90625 10.09375 25.917969 10.066406 25.929688 10.039062 C 25.929688 10.035156 25.929688 10.03125 25.933594 10.027344 C 25.941406 10 25.953125 9.972656 25.960938 9.941406 C 25.960938 9.941406 25.960938 9.9375 25.964844 9.933594 C 25.972656 9.90625 25.980469 9.875 25.984375 9.84375 C 25.984375 9.84375 25.984375 9.839844 25.984375 9.835938 C 25.984375 9.832031 25.988281 9.832031 25.988281 9.828125 C 25.992188 9.796875 25.996094 9.765625 25.996094 9.738281 C 25.996094 9.730469 26 9.722656 26 9.714844 C 26 9.699219 26 9.683594 26 9.667969 L 26 5 C 26.003906 4.730469 25.898438 4.46875 25.707031 4.277344 C 25.515625 4.085938 25.253906 3.980469 24.984375 3.984375 Z M 24.984375 3.984375 "/>
</g>
</svg>
