<?xml version="1.0" encoding="UTF-8"?>
<svg xmlns="http://www.w3.org/2000/svg" xmlns:xlink="http://www.w3.org/1999/xlink" viewBox="0 0 32 32" width="32px" height="32px">
<g id="surface20463654">
<path style=" stroke:none;fill-rule:nonzero;fill:rgb(100%,100%,100%);fill-opacity:1;" d="M 7 4 L 7 7 L 9 7 L 9 4 Z M 11 4 L 11 7 L 13 7 L 13 4 Z M 15 4 L 15 7 L 17 7 L 17 4 Z M 19 4 L 19 7 L 21 7 L 21 4 Z M 23 4 L 23 7 L 25 7 L 25 4 Z M 3 8 L 3 24 L 29 24 L 29 8 Z M 5 10 L 27 10 L 27 22 L 5 22 Z M 8.5 17 C 7.671875 17 7 17.671875 7 18.5 C 7 19.328125 7.671875 20 8.5 20 C 9.328125 20 10 19.328125 10 18.5 C 10 17.671875 9.328125 17 8.5 17 Z M 7 25 L 7 28 L 9 28 L 9 25 Z M 11 25 L 11 28 L 13 28 L 13 25 Z M 15 25 L 15 28 L 17 28 L 17 25 Z M 19 25 L 19 28 L 21 28 L 21 25 Z M 23 25 L 23 28 L 25 28 L 25 25 Z M 23 25 "/>
</g>
</svg>
