<?xml version="1.0" encoding="UTF-8"?>
<svg xmlns="http://www.w3.org/2000/svg" xmlns:xlink="http://www.w3.org/1999/xlink" viewBox="0 0 32 32" width="32px" height="32px">
<g id="surface4166064">
<path style=" stroke:none;fill-rule:nonzero;fill:rgb(100%,100%,100%);fill-opacity:1;" d="M 8.984375 4.652344 C 8.433594 4.660156 7.992188 5.113281 8 5.667969 L 8 8 L 7 8 C 5.355469 8 4 9.355469 4 11 L 4 21 C 4 22.644531 5.355469 24 7 24 L 8 24 L 8 26.332031 C 7.996094 26.695312 8.183594 27.03125 8.496094 27.210938 C 8.808594 27.394531 9.191406 27.394531 9.503906 27.210938 C 9.816406 27.03125 10.003906 26.695312 10 26.332031 L 10 24 L 12.667969 24 L 12.667969 26.332031 C 12.660156 26.695312 12.851562 27.03125 13.164062 27.210938 C 13.472656 27.394531 13.859375 27.394531 14.171875 27.210938 C 14.480469 27.03125 14.671875 26.695312 14.667969 26.332031 L 14.667969 24 L 17.332031 24 L 17.332031 26.332031 C 17.328125 26.695312 17.519531 27.03125 17.828125 27.210938 C 18.140625 27.394531 18.527344 27.394531 18.835938 27.210938 C 19.148438 27.03125 19.339844 26.695312 19.332031 26.332031 L 19.332031 24 L 22 24 L 22 26.332031 C 21.996094 26.695312 22.183594 27.03125 22.496094 27.210938 C 22.808594 27.394531 23.191406 27.394531 23.503906 27.210938 C 23.816406 27.03125 24.003906 26.695312 24 26.332031 L 24 24 L 25 24 C 26.644531 24 28 22.644531 28 21 L 28 11 C 28 9.355469 26.644531 8 25 8 L 24 8 L 24 5.667969 C 24.003906 5.304688 23.816406 4.96875 23.503906 4.789062 C 23.191406 4.605469 22.808594 4.605469 22.496094 4.789062 C 22.183594 4.96875 21.996094 5.304688 22 5.667969 L 22 8 L 19.332031 8 L 19.332031 5.667969 C 19.339844 5.304688 19.148438 4.96875 18.835938 4.789062 C 18.527344 4.605469 18.140625 4.605469 17.828125 4.789062 C 17.519531 4.96875 17.328125 5.304688 17.332031 5.667969 L 17.332031 8 L 14.667969 8 L 14.667969 5.667969 C 14.671875 5.304688 14.480469 4.96875 14.171875 4.789062 C 13.859375 4.605469 13.472656 4.605469 13.164062 4.789062 C 12.851562 4.96875 12.660156 5.304688 12.667969 5.667969 L 12.667969 8 L 10 8 L 10 5.667969 C 10.003906 5.394531 9.898438 5.136719 9.707031 4.945312 C 9.515625 4.753906 9.253906 4.648438 8.984375 4.652344 Z M 7 10 L 8.835938 10 C 8.941406 10.019531 9.054688 10.019531 9.160156 10 L 13.503906 10 C 13.609375 10.019531 13.71875 10.019531 13.828125 10 L 18.167969 10 C 18.277344 10.019531 18.386719 10.019531 18.492188 10 L 22.835938 10 C 22.941406 10.019531 23.054688 10.019531 23.160156 10 L 25 10 C 25.5625 10 26 10.4375 26 11 L 26 21 C 26 21.5625 25.5625 22 25 22 L 23.164062 22 C 23.058594 21.980469 22.945312 21.980469 22.839844 22 L 18.496094 22 C 18.390625 21.980469 18.28125 21.980469 18.171875 22 L 13.832031 22 C 13.722656 21.980469 13.613281 21.980469 13.507812 22 L 9.164062 22 C 9.058594 21.980469 8.945312 21.980469 8.839844 22 L 7 22 C 6.4375 22 6 21.5625 6 21 L 6 11 C 6 10.4375 6.4375 10 7 10 Z M 23 12 C 22.449219 12 22 12.449219 22 13 C 22 13.550781 22.449219 14 23 14 C 23.550781 14 24 13.550781 24 13 C 24 12.449219 23.550781 12 23 12 Z M 9.667969 16.667969 C 8.746094 16.667969 8 17.414062 8 18.332031 C 8 19.253906 8.746094 20 9.667969 20 C 10.585938 20 11.332031 19.253906 11.332031 18.332031 C 11.332031 17.414062 10.585938 16.667969 9.667969 16.667969 Z M 9.667969 16.667969 "/>
</g>
</svg>
