<?xml version="1.0" encoding="UTF-8"?>
<svg xmlns="http://www.w3.org/2000/svg" xmlns:xlink="http://www.w3.org/1999/xlink" viewBox="0 0 32 32" width="32px" height="32px">
<g id="surface4141328">
<path style=" stroke:none;fill-rule:nonzero;fill:rgb(100%,100%,100%);fill-opacity:1;" d="M 8.332031 2.667969 C 6.679688 2.667969 5.332031 4.011719 5.332031 5.667969 L 5.332031 26.332031 C 5.332031 27.988281 6.679688 29.332031 8.332031 29.332031 L 17.746094 29.332031 C 17.175781 28.742188 16.691406 28.066406 16.308594 27.332031 L 8.332031 27.332031 C 7.78125 27.332031 7.332031 26.882812 7.332031 26.332031 L 7.332031 5.667969 C 7.332031 5.117188 7.78125 4.667969 8.332031 4.667969 L 16 4.667969 L 16 10.332031 C 16 11.988281 17.347656 13.332031 19 13.332031 L 24.667969 13.332031 L 24.667969 14.691406 C 25.359375 14.742188 26.03125 14.878906 26.667969 15.085938 L 26.667969 12.332031 C 26.667969 12.058594 26.554688 11.808594 26.375 11.625 L 17.707031 2.960938 C 17.527344 2.777344 17.277344 2.667969 17 2.667969 Z M 18 6.082031 L 23.253906 11.332031 L 19 11.332031 C 18.449219 11.332031 18 10.882812 18 10.332031 Z M 24 16 C 23.609375 16 23.226562 16.03125 22.851562 16.097656 L 22.621094 17.050781 C 22.261719 18.535156 20.738281 19.414062 19.273438 18.984375 L 18.46875 18.746094 C 17.988281 19.367188 17.601562 20.074219 17.332031 20.839844 L 17.929688 21.410156 C 19.019531 22.460938 19.019531 24.207031 17.929688 25.253906 L 17.332031 25.828125 C 17.601562 26.59375 17.988281 27.300781 18.46875 27.921875 L 19.273438 27.683594 C 20.738281 27.25 22.261719 28.132812 22.621094 29.617188 L 22.851562 30.570312 C 23.226562 30.632812 23.609375 30.667969 24 30.667969 C 24.390625 30.667969 24.773438 30.632812 25.148438 30.570312 L 25.378906 29.617188 C 25.738281 28.132812 27.261719 27.25 28.726562 27.683594 L 29.53125 27.921875 C 30.011719 27.300781 30.398438 26.59375 30.667969 25.828125 L 30.070312 25.253906 C 28.980469 24.207031 28.980469 22.460938 30.070312 21.410156 L 30.667969 20.839844 C 30.398438 20.074219 30.011719 19.367188 29.53125 18.746094 L 28.726562 18.984375 C 27.261719 19.414062 25.738281 18.535156 25.378906 17.050781 L 25.148438 16.097656 C 24.773438 16.03125 24.390625 16 24 16 Z M 24 21.332031 C 25.105469 21.332031 26 22.230469 26 23.332031 C 26 24.4375 25.105469 25.332031 24 25.332031 C 22.894531 25.332031 22 24.4375 22 23.332031 C 22 22.230469 22.894531 21.332031 24 21.332031 Z M 24 21.332031 "/>
</g>
</svg>
