<?xml version="1.0" encoding="UTF-8"?>
<svg xmlns="http://www.w3.org/2000/svg" xmlns:xlink="http://www.w3.org/1999/xlink" viewBox="0 0 32 32" width="32px" height="32px">
<g id="surface47786771">
<path style="fill-rule:nonzero;fill:rgb(10.196079%,73.725492%,61.176473%);fill-opacity:1;stroke-width:15;stroke-linecap:butt;stroke-linejoin:round;stroke:rgb(10.196079%,73.725492%,61.176473%);stroke-opacity:1;stroke-miterlimit:10;" d="M 49.028617 16.690068 L 148.668773 71.896101 C 159.509147 77.898245 159.509147 94.101752 148.668773 100.103896 L 49.028617 155.309928 C 38.484926 161.152319 25.088506 153.255963 25.088506 141.206031 L 25.088506 30.793966 C 25.088506 21.756517 32.619713 15.046896 40.835576 14.72739 C 43.574197 14.613281 46.404105 15.229471 49.028617 16.690068 Z M 38.393639 26.024201 C 36.864575 26.914253 35.837593 28.625891 35.837593 30.793966 L 35.837593 141.206031 C 35.837593 145.565002 40.013989 148.029761 43.802415 145.90733 L 143.465393 90.701297 C 147.413571 88.533223 147.413571 83.466774 143.465393 81.298699 L 43.802415 26.092667 C 42.86672 25.567764 41.88538 25.316724 40.972507 25.316724 C 40.036811 25.316724 39.14676 25.567764 38.393639 26.024201 Z M 38.393639 26.024201 " transform="matrix(0.171163,0,0,0.171163,1.28,1.28)"/>
<path style=" stroke:none;fill-rule:nonzero;fill:rgb(10.196079%,73.725492%,61.176473%);fill-opacity:1;" d="M 8.269531 3.800781 C 6.863281 3.855469 5.574219 5.003906 5.574219 6.550781 L 5.574219 25.449219 C 5.574219 27.511719 7.867188 28.863281 9.671875 27.863281 L 26.726562 18.414062 C 28.582031 17.386719 28.582031 14.613281 26.726562 13.585938 L 9.671875 4.136719 C 9.222656 3.886719 8.738281 3.78125 8.269531 3.800781 Z M 8.292969 5.613281 C 8.449219 5.613281 8.617188 5.65625 8.777344 5.746094 L 25.835938 15.195312 C 26.511719 15.566406 26.511719 16.433594 25.835938 16.804688 L 8.777344 26.253906 C 8.128906 26.617188 7.414062 26.195312 7.414062 25.449219 L 7.414062 6.550781 C 7.414062 6.179688 7.589844 5.886719 7.851562 5.734375 C 7.980469 5.65625 8.132812 5.613281 8.292969 5.613281 Z M 8.292969 5.613281 "/>
</g>
</svg>
