<?xml version="1.0" encoding="UTF-8"?>
<svg xmlns="http://www.w3.org/2000/svg" xmlns:xlink="http://www.w3.org/1999/xlink" viewBox="0 0 32 32" width="32px" height="32px">
<g id="surface56175419">
<path style="fill-rule:nonzero;fill:rgb(0%,0%,0%);fill-opacity:1;stroke-width:20;stroke-linecap:butt;stroke-linejoin:round;stroke:rgb(10.196079%,73.725492%,61.176473%);stroke-opacity:1;stroke-miterlimit:10;" d="M 130.801028 21.490263 C 141.615069 21.490263 150.509735 30.384929 150.509735 41.19897 L 150.509735 130.801028 C 150.509735 141.615069 141.615069 150.509735 130.801028 150.509735 L 41.19897 150.509735 C 30.384929 150.509735 21.490263 141.615069 21.490263 130.801028 L 21.490263 41.19897 C 21.490263 30.384929 30.384929 21.490263 41.19897 21.490263 Z M 32.25749 41.19897 L 32.25749 130.801028 C 32.25749 135.810129 36.189869 139.742508 41.19897 139.742508 L 130.801028 139.742508 C 135.810129 139.742508 139.742508 135.810129 139.742508 130.801028 L 139.742508 41.19897 C 139.742508 36.189869 135.810129 32.25749 130.801028 32.25749 L 41.19897 32.25749 C 36.189869 32.25749 32.25749 36.189869 32.25749 41.19897 Z M 32.25749 41.19897 " transform="matrix(0.166884,0,0,0.166884,1.648,1.648)"/>
<path style=" stroke:none;fill-rule:nonzero;fill:rgb(10.196079%,73.725492%,61.176473%);fill-opacity:1;" d="M 8.523438 5.234375 C 6.71875 5.234375 5.234375 6.71875 5.234375 8.523438 L 5.234375 23.476562 C 5.234375 25.28125 6.71875 26.765625 8.523438 26.765625 L 23.476562 26.765625 C 25.28125 26.765625 26.765625 25.28125 26.765625 23.476562 L 26.765625 8.523438 C 26.765625 6.71875 25.28125 5.234375 23.476562 5.234375 Z M 8.523438 7.03125 L 23.476562 7.03125 C 24.3125 7.03125 24.96875 7.6875 24.96875 8.523438 L 24.96875 23.476562 C 24.96875 24.3125 24.3125 24.96875 23.476562 24.96875 L 8.523438 24.96875 C 7.6875 24.96875 7.03125 24.3125 7.03125 23.476562 L 7.03125 8.523438 C 7.03125 7.6875 7.6875 7.03125 8.523438 7.03125 Z M 8.523438 7.03125 "/>
</g>
</svg>
