<svg width="32" height="32" viewBox="0 0 32 32" fill="none" xmlns="http://www.w3.org/2000/svg">
<mask id="mask0_2_2" style="mask-type:alpha" maskUnits="userSpaceOnUse" x="3" y="7" width="26" height="16">
<path d="M3 7V13H5V11H15V11.4141L18 14.4141L21 11.4141V11H27V13H29V7H27V9H21V7H15V9H5V7H3ZM17 9H19V10.5859L18 11.5859L17 10.5859V9ZM6 15C4.35547 15 3 16.3555 3 18V20C3 21.6445 4.35547 23 6 23C7.64453 23 9 21.6445 9 20V18C9 16.3555 7.64453 15 6 15ZM11.1875 15L10.8867 15.4258C10.8867 15.4258 10.332 16 10 16V18C10.4414 18 10.6719 17.7695 11 17.625V23H13V15H11.1875ZM22 15C20.3555 15 19 16.3555 19 18V20C19 21.6445 20.3555 23 22 23C23.6445 23 25 21.6445 25 20V18C25 16.3555 23.6445 15 22 15ZM27.1875 15L26.8867 15.4258C26.8867 15.4258 26.332 16 26 16V18C26.4414 18 26.6719 17.7695 27 17.625V23H29V15H27.1875ZM15 16V18H17V16H15ZM6 17C6.56641 17 7 17.4336 7 18V20C7 20.5664 6.56641 21 6 21C5.43359 21 5 20.5664 5 20V18C5 17.4336 5.43359 17 6 17ZM22 17C22.5664 17 23 17.4336 23 18V20C23 20.5664 22.5664 21 22 21C21.4336 21 21 20.5664 21 20V18C21 17.4336 21.4336 17 22 17ZM15 20V22H17V20H15Z" fill="white"/>
</mask>
<g mask="url(#mask0_2_2)">
<path d="M2 7H29V15H2V7Z" fill="white"/>
</g>
<path d="M9.942 20.176L11.776 17.796V16.2H5.616V18.006H9.452L7.52 20.526L8.262 21.646H8.682C9.69 21.646 10.25 22.192 10.25 22.976C10.25 23.774 9.69 24.306 8.682 24.306C7.758 24.306 7.212 23.9 6.974 23.172L5.322 24.124C5.882 25.524 7.212 26.196 8.682 26.196C10.53 26.196 12.182 25.076 12.182 22.976C12.182 21.534 11.216 20.554 9.942 20.176ZM17.0389 26.196C19.5449 26.196 20.9589 24.124 20.9589 21.1C20.9589 18.076 19.5449 16.004 17.0389 16.004C14.5469 16.004 13.1189 18.076 13.1189 21.1C13.1189 24.124 14.5469 26.196 17.0389 26.196ZM17.0389 24.306C15.7229 24.306 15.0509 23.172 15.0509 21.1C15.0509 19.028 15.7229 17.88 17.0389 17.88C18.3549 17.88 19.0409 19.028 19.0409 21.1C19.0409 23.172 18.3549 24.306 17.0389 24.306ZM23.9393 20.988C23.9393 20.61 24.3033 20.414 24.7513 20.414C25.2693 20.414 25.6613 20.68 25.8713 21.128L27.4113 20.288C26.8653 19.322 25.8853 18.804 24.7513 18.804C23.3093 18.804 22.0913 19.602 22.0913 21.03C22.0913 23.494 25.7033 22.934 25.7033 23.956C25.7033 24.362 25.3113 24.558 24.7373 24.558C24.0373 24.558 23.5613 24.222 23.3653 23.648L21.7973 24.53C22.3013 25.608 23.3373 26.196 24.7373 26.196C26.2353 26.196 27.5513 25.468 27.5513 23.956C27.5513 21.38 23.9393 22.024 23.9393 20.988Z" fill="white"/>
</svg>
