<?xml version="1.0" encoding="UTF-8"?>
<svg xmlns="http://www.w3.org/2000/svg" xmlns:xlink="http://www.w3.org/1999/xlink" viewBox="0 0 32 32" width="32px" height="32px">
<g id="surface2307448">
<path style="fill-rule:nonzero;fill:rgb(100%,100%,100%);fill-opacity:1;stroke-width:10;stroke-linecap:butt;stroke-linejoin:round;stroke:rgb(100%,100%,100%);stroke-opacity:1;stroke-miterlimit:10;" d="M 157.658647 86.000003 C 157.658647 125.518129 125.518129 157.658647 86.000003 157.658647 C 46.481876 157.658647 14.341358 125.518129 14.341358 86.000003 C 14.341358 66.252084 22.365343 48.287273 35.315163 35.337452 C 36.674783 33.933255 38.680779 33.353745 40.553043 33.844099 C 42.447595 34.334454 43.918659 35.805518 44.409013 37.70007 C 44.899368 39.572333 44.319858 41.57833 42.91566 42.937949 C 31.90497 53.970929 25.084582 69.149634 25.084582 86.000003 C 25.084582 119.70074 52.299265 146.915423 86.000003 146.915423 C 119.70074 146.915423 146.915423 119.70074 146.915423 86.000003 C 146.915423 53.525152 121.573003 27.313467 89.588507 25.441204 L 89.588507 30.456195 C 89.610796 32.395324 88.585509 34.200721 86.913845 35.18143 C 85.242182 36.16214 83.169319 36.16214 81.497655 35.18143 C 79.825992 34.200721 78.800705 32.395324 78.822994 30.456195 L 78.822994 19.779837 C 78.822994 16.859998 81.163323 14.475091 84.083162 14.408224 C 84.372917 14.408224 85.019293 14.341358 86.000003 14.341358 C 125.518129 14.341358 157.658647 46.481876 157.658647 86.000003 Z M 59.342541 51.742044 L 86.44578 78.845283 C 90.279461 79.135038 93.1993 82.389209 93.065567 86.222891 C 92.954123 90.056573 89.833684 93.110145 86.000003 93.177012 C 82.210899 93.154723 79.09046 90.234884 78.845283 86.44578 L 51.742044 59.342541 C 50.181825 57.826899 49.69147 55.48657 50.516157 53.458285 C 51.318556 51.43 53.302263 50.114958 55.48657 50.114958 C 56.935345 50.114958 58.339543 50.694468 59.342541 51.742044 Z M 59.342541 51.742044 " transform="matrix(0.175256,0,0,0.175256,0.928,0.928)"/>
<path style=" stroke:none;fill-rule:nonzero;fill:rgb(100%,100%,100%);fill-opacity:1;" d="M 16 3.441406 C 15.828125 3.441406 15.714844 3.453125 15.664062 3.453125 C 15.152344 3.464844 14.742188 3.882812 14.742188 4.394531 L 14.742188 6.265625 C 14.738281 6.605469 14.917969 6.921875 15.210938 7.09375 C 15.503906 7.265625 15.867188 7.265625 16.160156 7.09375 C 16.453125 6.921875 16.632812 6.605469 16.628906 6.265625 L 16.628906 5.386719 C 22.234375 5.714844 26.675781 10.308594 26.675781 16 C 26.675781 21.90625 21.90625 26.675781 16 26.675781 C 10.09375 26.675781 5.324219 21.90625 5.324219 16 C 5.324219 13.046875 6.519531 10.386719 8.449219 8.453125 C 8.695312 8.214844 8.796875 7.863281 8.710938 7.535156 C 8.625 7.203125 8.367188 6.945312 8.035156 6.859375 C 7.707031 6.773438 7.355469 6.875 7.117188 7.121094 C 4.847656 9.390625 3.441406 12.539062 3.441406 16 C 3.441406 22.925781 9.074219 28.558594 16 28.558594 C 22.925781 28.558594 28.558594 22.925781 28.558594 16 C 28.558594 9.074219 22.925781 3.441406 16 3.441406 Z M 10.652344 9.710938 C 10.269531 9.710938 9.921875 9.941406 9.78125 10.296875 C 9.636719 10.652344 9.722656 11.0625 9.996094 11.328125 L 14.746094 16.078125 C 14.789062 16.742188 15.335938 17.253906 16 17.257812 C 16.671875 17.246094 17.21875 16.710938 17.238281 16.039062 C 17.261719 15.367188 16.75 14.796875 16.078125 14.746094 L 11.328125 9.996094 C 11.152344 9.8125 10.90625 9.710938 10.652344 9.710938 Z M 10.652344 9.710938 "/>
</g>
</svg>
