<?xml version="1.0" encoding="UTF-8"?>
<svg xmlns="http://www.w3.org/2000/svg" xmlns:xlink="http://www.w3.org/1999/xlink" viewBox="0 0 32 32" width="32px" height="32px">
<g id="surface55698442">
<path style=" stroke:none;fill-rule:nonzero;fill:rgb(100%,100%,100%);fill-opacity:1;" d="M 16 2.667969 C 13.660156 2.667969 11.714844 4.414062 11.386719 6.667969 L 6.824219 6.667969 C 6.769531 6.65625 6.710938 6.652344 6.652344 6.652344 C 6.605469 6.652344 6.554688 6.65625 6.503906 6.667969 L 4.332031 6.667969 C 3.972656 6.660156 3.636719 6.851562 3.457031 7.164062 C 3.273438 7.472656 3.273438 7.859375 3.457031 8.171875 C 3.636719 8.480469 3.972656 8.671875 4.332031 8.667969 L 5.757812 8.667969 L 7.4375 26.019531 C 7.617188 27.890625 9.207031 29.332031 11.085938 29.332031 L 20.910156 29.332031 C 22.789062 29.332031 24.378906 27.890625 24.5625 26.019531 L 26.242188 8.667969 L 27.667969 8.667969 C 28.027344 8.671875 28.363281 8.480469 28.542969 8.171875 C 28.726562 7.859375 28.726562 7.472656 28.542969 7.164062 C 28.363281 6.851562 28.027344 6.660156 27.667969 6.667969 L 25.496094 6.667969 C 25.390625 6.648438 25.28125 6.648438 25.175781 6.667969 L 20.613281 6.667969 C 20.285156 4.414062 18.339844 2.667969 16 2.667969 Z M 16 4.667969 C 17.253906 4.667969 18.28125 5.511719 18.574219 6.667969 L 13.425781 6.667969 C 13.71875 5.511719 14.746094 4.667969 16 4.667969 Z M 7.765625 8.667969 L 24.230469 8.667969 L 22.570312 25.828125 C 22.488281 26.691406 21.777344 27.332031 20.910156 27.332031 L 11.085938 27.332031 C 10.222656 27.332031 9.511719 26.6875 9.429688 25.828125 Z M 13.652344 11.984375 C 13.097656 11.996094 12.660156 12.449219 12.667969 13 L 12.667969 23 C 12.660156 23.359375 12.851562 23.695312 13.164062 23.878906 C 13.472656 24.058594 13.859375 24.058594 14.171875 23.878906 C 14.480469 23.695312 14.671875 23.359375 14.667969 23 L 14.667969 13 C 14.671875 12.730469 14.566406 12.46875 14.375 12.277344 C 14.183594 12.085938 13.921875 11.980469 13.652344 11.984375 Z M 18.316406 11.984375 C 17.765625 11.996094 17.324219 12.449219 17.332031 13 L 17.332031 23 C 17.328125 23.359375 17.519531 23.695312 17.828125 23.878906 C 18.140625 24.058594 18.527344 24.058594 18.835938 23.878906 C 19.148438 23.695312 19.339844 23.359375 19.332031 23 L 19.332031 13 C 19.335938 12.730469 19.230469 12.46875 19.039062 12.277344 C 18.847656 12.085938 18.589844 11.980469 18.316406 11.984375 Z M 18.316406 11.984375 "/>
</g>
</svg>
