<?xml version="1.0" encoding="UTF-8"?>
<svg xmlns="http://www.w3.org/2000/svg" xmlns:xlink="http://www.w3.org/1999/xlink" viewBox="0 0 32 32" width="32px" height="32px">
<g id="surface4177406">
<path style=" stroke:none;fill-rule:nonzero;fill:rgb(100%,100%,100%);fill-opacity:1;" d="M 16 2.667969 C 12.328125 2.667969 9.332031 5.664062 9.332031 9.332031 C 9.332031 13.003906 12.328125 16 16 16 C 19.671875 16 22.667969 13.003906 22.667969 9.332031 C 22.667969 5.664062 19.671875 2.667969 16 2.667969 Z M 16 4.667969 C 18.589844 4.667969 20.667969 6.746094 20.667969 9.332031 C 20.667969 11.921875 18.589844 14 16 14 C 13.410156 14 11.332031 11.921875 11.332031 9.332031 C 11.332031 6.746094 13.410156 4.667969 16 4.667969 Z M 23.332031 16 C 19.285156 16 16 19.285156 16 23.332031 C 16 27.382812 19.285156 30.667969 23.332031 30.667969 C 27.382812 30.667969 30.667969 27.382812 30.667969 23.332031 C 30.667969 19.285156 27.382812 16 23.332031 16 Z M 8.332031 18.667969 C 6.679688 18.667969 5.332031 20.011719 5.332031 21.667969 L 5.332031 22.175781 C 5.332031 23.742188 5.988281 25.253906 7.125 26.3125 C 8.605469 27.691406 11.34375 29.332031 16 29.332031 C 16.367188 29.332031 16.714844 29.320312 17.058594 29.300781 C 16.5 28.714844 16.023438 28.050781 15.644531 27.324219 C 11.863281 27.246094 9.667969 25.949219 8.488281 24.847656 C 7.753906 24.164062 7.332031 23.191406 7.332031 22.175781 L 7.332031 21.667969 C 7.332031 21.117188 7.78125 20.667969 8.332031 20.667969 L 15.089844 20.667969 C 15.320312 19.953125 15.640625 19.285156 16.039062 18.667969 Z M 27.332031 20 C 27.503906 20 27.675781 20.066406 27.804688 20.195312 C 28.066406 20.457031 28.066406 20.878906 27.804688 21.136719 L 22.472656 26.472656 C 22.339844 26.601562 22.171875 26.667969 22 26.667969 C 21.828125 26.667969 21.660156 26.601562 21.527344 26.472656 L 18.863281 23.804688 C 18.601562 23.542969 18.601562 23.121094 18.863281 22.863281 C 19.121094 22.601562 19.542969 22.601562 19.804688 22.863281 L 22 25.058594 L 26.863281 20.195312 C 26.992188 20.066406 27.164062 20 27.332031 20 Z M 27.332031 20 "/>
</g>
</svg>
