<?xml version="1.0" encoding="UTF-8"?>
<svg xmlns="http://www.w3.org/2000/svg" xmlns:xlink="http://www.w3.org/1999/xlink" viewBox="0 0 32 32" width="32px" height="32px">
<g id="surface44094044">
<path style=" stroke:none;fill-rule:nonzero;fill:rgb(100%,100%,100%);fill-opacity:1;" d="M 28.3125 2.65625 C 28.054688 2.664062 27.808594 2.773438 27.625 2.960938 L 24.300781 6.285156 C 21.515625 4.214844 17.59375 4.324219 15.070312 6.847656 L 13 8.917969 L 12.375 8.292969 C 12.121094 8.03125 11.75 7.925781 11.398438 8.019531 C 11.050781 8.109375 10.777344 8.382812 10.683594 8.734375 C 10.59375 9.082031 10.699219 9.457031 10.960938 9.707031 L 12.175781 10.925781 C 12.242188 11.011719 12.320312 11.089844 12.40625 11.15625 L 20.84375 19.589844 C 20.90625 19.679688 20.984375 19.757812 21.074219 19.820312 L 22.292969 21.039062 C 22.542969 21.300781 22.917969 21.40625 23.265625 21.316406 C 23.617188 21.222656 23.890625 20.949219 23.980469 20.601562 C 24.074219 20.25 23.96875 19.878906 23.707031 19.625 L 23.082031 19 L 25.152344 16.929688 C 27.675781 14.40625 27.785156 10.484375 25.714844 7.699219 L 29.039062 4.375 C 29.335938 4.085938 29.425781 3.648438 29.261719 3.265625 C 29.101562 2.886719 28.726562 2.644531 28.3125 2.65625 Z M 20.113281 6.753906 C 21.40625 6.753906 22.691406 7.253906 23.691406 8.234375 C 23.714844 8.257812 23.742188 8.285156 23.765625 8.308594 C 25.738281 10.320312 25.734375 13.515625 23.738281 15.515625 L 21.667969 17.585938 L 14.414062 10.332031 L 16.484375 8.261719 C 17.492188 7.257812 18.800781 6.753906 20.113281 6.753906 Z M 8.988281 10.65625 C 8.582031 10.65625 8.214844 10.902344 8.0625 11.28125 C 7.910156 11.65625 8 12.089844 8.292969 12.375 L 8.917969 13 L 6.847656 15.070312 C 4.324219 17.59375 4.214844 21.515625 6.285156 24.300781 L 2.960938 27.625 C 2.699219 27.878906 2.59375 28.25 2.683594 28.601562 C 2.777344 28.949219 3.050781 29.222656 3.398438 29.316406 C 3.75 29.40625 4.121094 29.300781 4.375 29.039062 L 7.699219 25.714844 C 10.484375 27.785156 14.40625 27.675781 16.929688 25.152344 L 19 23.082031 L 19.625 23.707031 C 19.878906 23.96875 20.25 24.074219 20.601562 23.980469 C 20.949219 23.890625 21.222656 23.617188 21.316406 23.265625 C 21.40625 22.917969 21.300781 22.542969 21.039062 22.292969 L 19.824219 21.074219 C 19.757812 20.988281 19.679688 20.910156 19.59375 20.84375 L 11.15625 12.410156 C 11.09375 12.320312 11.015625 12.242188 10.925781 12.179688 L 9.707031 10.960938 C 9.519531 10.765625 9.261719 10.65625 8.988281 10.65625 Z M 10.332031 14.414062 L 17.585938 21.667969 L 15.515625 23.738281 C 13.515625 25.734375 10.320312 25.738281 8.308594 23.765625 C 8.285156 23.742188 8.257812 23.714844 8.234375 23.691406 C 6.261719 21.679688 6.265625 18.484375 8.261719 16.484375 Z M 10.332031 14.414062 "/>
</g>
</svg>
